<?xml version="1.0" encoding="utf-8"?>
<!-- Generator: Adobe Illustrator 18.0.0, SVG Export Plug-In . SVG Version: 6.00 Build 0)  -->
<!DOCTYPE svg PUBLIC "-//W3C//DTD SVG 1.1//EN" "http://www.w3.org/Graphics/SVG/1.1/DTD/svg11.dtd">
<svg version="1.1" id="Layer_1" xmlns="http://www.w3.org/2000/svg" xmlns:xlink="http://www.w3.org/1999/xlink" x="0px" y="0px"
	 viewBox="0 0 56.5 56.5" enable-background="new 0 0 56.5 56.5" xml:space="preserve">
<g>
	<path fill="#E54537" d="M33.7,36c0-2.1,0-4.1,0-6.1c0-0.8,0.3-1.1,0.9-1.4c2.1-0.9,4.2-1.9,6.3-2.8c1.3-0.6,1.8-1.5,1.3-2.6
		c-0.5-1.1-1.5-1.4-2.9-0.8c-2.5,1.1-5,2.3-7.5,3.4c-1.5,0.6-2,1.6-2,3.1c0.1,2.1,0,4.2,0,6.2c0,0.4-0.3,1-0.6,1
		c-0.8,0.1-1.7,0-2.6,0c0-0.7,0-1.2,0-1.7c0-1.5,0-2.9,0-4.4c0-1.1-0.8-1.8-1.8-1.9c-0.9,0-1.7,0.7-1.9,1.7
		c-0.1,0.4-0.1,0.9-0.1,1.3c0,1.3,0,2.7,0,4c0,0.6-0.2,0.8-0.8,0.9c-2.7,0.2-2.7,0.3-2.2,2.9c0,0.3,0.1,0.5,0.1,0.8
		c0.2,1.2,0.8,1.8,2.1,1.8c0.9,0,1.9,0,2.8,0c-1.1,0.4-2.2,0.6-3.3,0.8c-0.7,0.1-1.4,0.4-1.2,1.3c0.2,0.8,0.8,0.8,1.5,0.6
		c4.2-0.8,8.4-1.6,12.6-2.3c1.3-0.2,1.8-1,2.1-2.1c0.2-0.7,0.3-1.4,0.4-2.1c0.2-1.2-0.3-1.7-1.5-1.7C34.9,36,34.4,36,33.7,36z"/>
	<path fill="#E54537" d="M16.2,15.9c0.3-0.1,0.7-0.2,1.1-0.4c4.1-1.9,8.3-3.8,12.4-5.7c3.8-1.8,7.6-3.5,11.4-5.3
		c1.2-0.6,1.6-1.6,1.2-2.6c-0.5-1-1.5-1.3-2.7-0.8c-0.2,0.1-0.4,0.2-0.6,0.3c-6.7,3.1-13.4,6.2-20.1,9.3c-1.2,0.6-2.5,1.1-3.7,1.8
		c-0.8,0.4-1.2,1.1-1,2.1C14.4,15.4,15,15.9,16.2,15.9z"/>
	<path fill="#E54537" d="M42.4,16.8c0-1.5-1.3-2.3-2.8-1.6c-8.1,3.7-16.1,7.5-24.1,11.2c-1.3,0.6-1.7,1.5-1.2,2.5
		c0.5,1.1,1.5,1.4,2.8,0.8c2-0.9,3.9-1.8,5.9-2.7c6-2.8,12-5.6,17.9-8.3C41.7,18.3,42.4,17.8,42.4,16.8z"/>
	<path fill="#E54537" d="M16.1,23c0.3-0.1,0.8-0.3,1.2-0.5c6.6-3,13.1-6.1,19.7-9.1c1.5-0.7,2.9-1.3,4.4-2.1c1-0.5,1.3-1.5,0.8-2.4
		C41.8,8,40.9,7.7,39.9,8c-0.3,0.1-0.6,0.2-0.9,0.4c-6.7,3.1-13.5,6.2-20.2,9.4c-1.2,0.6-2.5,1.1-3.7,1.8c-0.8,0.4-1.2,1.1-1,2.1
		C14.4,22.5,15,22.9,16.1,23z"/>
	<path fill="#E54537" d="M29.2,2.2c0-1.8-1.4-2.6-2.7-2C22.7,1.9,19,3.6,15.3,5.3c-1.1,0.5-1.4,1.5-1,2.4c0.5,1,1.4,1.4,2.6,0.9
		C20.6,7,24.3,5.3,28,3.5C28.6,3.2,29,2.5,29.2,2.2z"/>
	<path fill="#E54537" d="M21.1,52.9c0.4,0,0.5,0,0.5,0c4.6-0.9,9.2-1.7,13.7-2.6c0.4-0.1,0.6-0.7,0.9-1.1c-0.4-0.2-0.9-0.7-1.3-0.7
		c-1.9,0.3-3.9,0.7-5.8,1C26.6,50,24,50.4,21.4,51c-0.4,0.1-0.9,0.7-1.1,1.1C20.3,52.3,20.9,52.7,21.1,52.9z"/>
	<path fill="#E54537" d="M21.1,48.5c0.5-0.1,0.6-0.1,0.8-0.1c4.4-0.8,8.9-1.6,13.3-2.5c0.7-0.1,1.3-0.4,1.1-1.2
		c-0.2-0.8-0.9-0.8-1.5-0.7c-2.3,0.4-4.5,0.8-6.8,1.3c-2.2,0.4-4.4,0.8-6.6,1.3c-0.4,0.1-0.9,0.6-1,1.1
		C20.3,47.9,20.9,48.3,21.1,48.5z"/>
	<path fill="#E54537" d="M23,56.5c3.7-0.6,7.2-1.2,10.6-1.8c0.3-0.1,0.5-0.7,0.8-1.1c-0.4-0.3-0.9-0.8-1.2-0.7
		c-3.4,0.5-6.8,1.1-10.2,1.7c-0.4,0.1-0.9,0.7-0.8,1C22.2,56,22.8,56.3,23,56.5z"/>
	<path fill="#E54537" d="M21.1,52.9c-0.2-0.2-0.8-0.7-0.7-0.9c0.2-0.5,0.6-1,1.1-1.1c2.6-0.6,5.2-1,7.7-1.5c1.9-0.4,3.8-0.8,5.8-1
		c0.4-0.1,0.9,0.4,1.3,0.7c-0.3,0.4-0.5,1.1-0.9,1.1c-4.6,0.9-9.2,1.8-13.7,2.6C21.5,52.9,21.4,52.9,21.1,52.9z"/>
	<path fill="#E54537" d="M21.1,48.5c-0.2-0.2-0.8-0.6-0.7-0.8c0.1-0.4,0.6-1,1-1.1c2.2-0.5,4.4-0.9,6.6-1.3c2.3-0.4,4.5-0.8,6.8-1.3
		c0.7-0.1,1.3-0.2,1.5,0.7c0.2,0.8-0.4,1.1-1.1,1.2c-4.4,0.8-8.9,1.7-13.3,2.5C21.7,48.5,21.5,48.5,21.1,48.5z"/>
	<path fill="#E54537" d="M23,56.5c-0.2-0.2-0.8-0.5-0.8-0.9c0-0.3,0.5-1,0.8-1c3.4-0.6,6.8-1.2,10.2-1.7c0.4-0.1,0.8,0.5,1.2,0.7
		c-0.3,0.4-0.5,1-0.8,1.1C30.2,55.3,26.8,55.9,23,56.5z"/>
</g>
</svg>
