<?xml version="1.0" encoding="utf-8"?>
<!-- Generator: Adobe Illustrator 18.0.0, SVG Export Plug-In . SVG Version: 6.00 Build 0)  -->
<!DOCTYPE svg PUBLIC "-//W3C//DTD SVG 1.1//EN" "http://www.w3.org/Graphics/SVG/1.1/DTD/svg11.dtd">
<svg version="1.1" id="Layer_1" xmlns="http://www.w3.org/2000/svg" xmlns:xlink="http://www.w3.org/1999/xlink" x="0px" y="0px"
	 viewBox="0 0 192 192" enable-background="new 0 0 192 192" xml:space="preserve">
<g>
	<path fill="#0074C0" d="M0,192C0,128,0,64,0,0c64,0,128,0,192,0c0,64,0,128,0,192C128,192,64,192,0,192z"/>
	<path fill="#FEFEFE" d="M150.6,163c6-2,9.4-5.1,8.1-11.8c-1.7-3.7-5.2-6.3-9.3-8.3c-3-1.5-6.1-3-9.2-4.3c-5.9-2.5-11.4-6-15.3-11.2
		c-1.9-2.6-3.3-5.5-4.1-8.8c-0.7-2.9-1-5.7-0.8-8.6c0.4-8.5,4-15.3,11.1-20c4.4-2.9,9.1-4.3,14.4-5.3c4.8-0.8,9.4-0.7,14.1-0.7
		c4.7,0.1,9.4,0.6,13.8,2.8c0.7,0.3,1.6,0.2,2.3,0.3c0,6.4,0,12.6,0,19.2c-4-1.8-7.5-3.7-11.4-4.7c-1-0.3-2.1-0.6-3.2-0.6
		c-3.7-0.1-7.4-0.4-11,0.1c-3.6,0.4-6.8,1.9-8.6,5.7c-1,2-0.2,3.9-0.5,5.1c1.2,4.4,4.5,6,7.4,7.9c3.2,2.1,6.8,3.7,10.3,5.2
		c4.5,1.9,9.2,4.6,12,7.3c0.4,0.4,0.7,0.7,1.1,1.1c6.2,5.1,8.6,11.8,8.2,19.6c-0.1,1.7,0.8,3.6-0.6,5.2c-1.1,1.3,0.5,3.4-1.4,4.4
		c-1.1,6-5,9.7-10,12.5c-4.1,2.3-8.5,3.5-13.3,4.2c-3.6,0.5-7.1,0.5-10.6,0.9c-4.3,0.5-8.5-0.7-12.5-1.3c-3.8-0.6-7.9-1.6-11.4-4.3
		c0-6.2,0-12.8,0-19.5c2.2,0.3,3.4,1.9,5,2.9c4.9,3,10,5.3,15.8,5.2C144.5,163,148,163,150.6,163z"/>
	<path fill="#FEFEFE" d="M117.9,84.2c0,6,0,11.8,0,17.7c-8.2,0-16.3,0-24.8,0c0,26,0,51.9,0,78c-6.8,0-13.2,0-20,0
		c0-25.7,0-51.6,0-77.7c-8.4,0-16.5,0-24.9,0c0-6.1,0-12,0-18C71.3,84.2,94.4,84.2,117.9,84.2z"/>
</g>
</svg>
