<?xml version="1.0" encoding="utf-8"?>
<!-- Generator: Adobe Illustrator 18.0.0, SVG Export Plug-In . SVG Version: 6.00 Build 0)  -->
<!DOCTYPE svg PUBLIC "-//W3C//DTD SVG 1.1//EN" "http://www.w3.org/Graphics/SVG/1.1/DTD/svg11.dtd">
<svg version="1.1" id="Layer_1" xmlns="http://www.w3.org/2000/svg" xmlns:xlink="http://www.w3.org/1999/xlink" x="0px" y="0px"
	 viewBox="0 0 748.9 651.8" enable-background="new 0 0 748.9 651.8" xml:space="preserve">
<g>
	<g>
		<path fill="#364548" d="M519.9,560v-14.6c0-1.9,1.2-3.5,3.2-3.5h0.5c2,0,3.2,1.5,3.2,3.5v30.7c0,7.5-3.7,13.4-10.1,17.2
			c-2.9,1.7-6.3,2.7-9.7,2.7h-1.4c-7.5,0-13.4-3.7-17.2-10.1c-1.7-2.9-2.7-6.3-2.7-9.7v-1.4c0-7.5,3.7-13.4,10.1-17.2
			c2.9-1.8,6.3-2.7,9.7-2.7h1.4C512,554.9,516.3,556.9,519.9,560L519.9,560z M492.6,575.4c0,5.4,2.6,9.5,7.3,12c1.9,1,4,1.6,6.2,1.6
			c5.3,0,9.2-2.5,11.9-7c1.3-2.1,1.8-4.4,1.8-6.8c0-4.7-2.2-8.3-6-11c-2.3-1.6-4.9-2.5-7.7-2.5c-5.8,0-9.9,2.9-12.4,8.1
			C493,571.6,492.6,573.5,492.6,575.4L492.6,575.4z M550.8,554.9h1c8,0,14.1,3.9,17.9,10.8c1.5,2.8,2.4,5.8,2.4,9v1.4
			c0,7.5-3.7,13.4-10.1,17.2c-3,1.8-6.3,2.7-9.7,2.7h-1.4c-7.5,0-13.4-3.7-17.2-10.1c-1.7-2.9-2.7-6.3-2.7-9.7v-1.4
			c0-7.5,3.7-13.4,10.1-17.2C544,555.8,547.3,554.9,550.8,554.9L550.8,554.9z M537.8,575.4c0,5.2,2.6,9.1,7,11.8
			c2.1,1.3,4.4,1.8,6.8,1.8c5.2,0,9-2.6,11.7-7c1.3-2.1,1.8-4.4,1.8-6.8c0-4.9-2.3-8.6-6.4-11.3c-2.2-1.5-4.6-2.2-7.3-2.2
			c-5.8,0-9.9,2.9-12.4,8.1C538.2,571.6,537.8,573.5,537.8,575.4L537.8,575.4z M600.7,562.3c-1-0.5-3-0.6-4.1-0.7
			c-5.8-0.2-9.9,3-12.4,8.1c-0.8,1.8-1.2,3.6-1.2,5.5c0,5.9,3.1,10,8.4,12.6c1.9,0.9,4.4,1.1,6.5,1.1c1.9,0,4.5-1.1,6.1-1.9l0.3-0.1
			h1.3l0.1,0c1.6,0.3,2.8,1.3,2.8,3v0.7c0,4.2-7.7,5.2-10.6,5.4c-10.3,0.7-18.1-5-21-14.8c-0.5-1.7-0.7-3.4-0.7-5.2v-1.4
			c0-7.5,3.7-13.4,10.1-17.2c3-1.8,6.3-2.7,9.7-2.7h1.4c3.7,0,7.1,1,10.1,3.1l0.2,0.2l0.2,0.3c0.3,0.5,0.6,1.2,0.6,1.8v0.7
			c0,1.8-1.3,2.7-2.9,3l-0.1,0H605C603.9,563.8,601.6,562.8,600.7,562.3L600.7,562.3z M623,567c2.7-2.7,5.4-5.4,8.1-8
			c0.8-0.7,3.6-3.9,4.8-3.9h1.2l0.1,0c1.6,0.3,2.8,1.3,2.8,3v0.7c0,1.2-1.4,2.5-2.1,3.3c-1.6,1.7-3.3,3.3-4.9,4.9l-8.3,8.5
			c3.6,3.6,7.2,7.2,10.7,10.8c1,1,2,2,2.9,3c0.3,0.4,0.8,0.8,1.1,1.3c0.3,0.5,0.5,1,0.5,1.6v0.7l0,0.2c-0.4,1.6-1.4,2.8-3.1,2.8
			h-0.5c-1.1,0-2.4-1.3-3.2-2c-1.6-1.5-3.2-3.1-4.7-4.7l-5.3-5.2v8.3c0,1.9-1.2,3.5-3.2,3.5h-0.5c-2,0-3.2-1.5-3.2-3.5v-46.8
			c0-1.9,1.2-3.4,3.2-3.4h0.5c2,0,3.2,1.5,3.2,3.4V567L623,567z M709,555.2h0.7c2.1,0,3.4,1.4,3.4,3.5c0,2.9-2.7,3.6-5.1,3.6
			c-3.1,0-6.1,1.9-8.2,4c-2.7,2.6-3.8,6-3.8,9.7v16.7c0,1.9-1.2,3.4-3.2,3.4h-0.5c-2,0-3.2-1.5-3.2-3.4v-17.7
			c0-6.8,3.3-12.3,8.8-16.2C701.2,556.4,705,555.2,709,555.2L709,555.2z M660,588.2c2.5,0.9,5.4,0.8,7.9,0.3c1.3-0.6,4.7-2,5.9-1.8
			l0.2,0l0.2,0.1c0.8,0.4,1.5,0.9,1.9,1.7c0.9,1.8,0.5,3.6-1.3,4.6l-0.6,0.3c-6.5,3.8-13.5,3.3-20-0.3c-3.1-1.7-5.5-4.2-7.3-7.2
			l-0.4-0.7c-4.2-7.3-3.6-14.9,1.1-21.8c1.6-2.4,3.8-4.2,6.3-5.7l0.9-0.5c6.2-3.6,12.8-3.3,19.1-0.2c3.4,1.7,6.2,4.2,8.1,7.5
			l0.3,0.6c1.4,2.4-0.4,4.5-2.3,5.9c-2.1,1.7-4.3,3.6-6.4,5.4C669.1,580.3,664.5,584.3,660,588.2L660,588.2z M654,584.1
			c5.1-4.4,10.2-8.8,15.3-13.2c1.7-1.5,3.7-3.1,5.4-4.6c-1.4-1.7-3.7-3-5.7-3.8c-4-1.5-7.9-1-11.5,1.1c-4.8,2.8-6.8,7.1-6.6,12.6
			c0.1,2.2,0.6,4.2,1.8,6.1C653.1,582.9,653.6,583.5,654,584.1z M616.8,445.9h20.3v20.8h10.3c4.8,0,9.6-0.8,14.1-2.4
			c2.2-0.8,4.7-1.8,6.9-3.1c-2.9-3.7-4.3-8.5-4.8-13.2c-0.6-6.3,0.7-14.6,5-19.6l2.1-2.5l2.5,2c6.4,5.2,11.8,12.4,12.8,20.6
			c7.7-2.3,16.8-1.7,23.6,2.2l2.8,1.6l-1.5,2.9c-5.8,11.2-17.8,14.7-29.6,14.1c-17.6,43.9-56,64.7-102.5,64.7
			c-24,0-46.1-9-58.6-30.3l-0.2-0.3l-1.8-3.7c-4.2-9.4-5.7-19.7-4.7-29.9l0.3-3.1h17.4v-20.8h20.3v-20.3h40.7v-20.3h24.4V445.9"/>
		<path fill="#22A0C8" d="M682.8,453.6c1.4-10.6-6.6-18.9-11.5-22.9c-5.7,6.6-6.6,23.7,2.3,31c-5,4.4-15.4,8.4-26.1,8.4H517.1
			c-1,11.2,0.9,21.5,5.4,30.3l1.5,2.7c0.9,1.6,2,3.1,3.1,4.6c5.4,0.3,10.3,0.5,14.8,0.4h0c8.9-0.2,16.1-1.2,21.6-3.2
			c0.8-0.3,1.7,0.2,2,1c0.2,0.8-0.2,1.6-0.9,1.9c-0.7,0.3-1.5,0.5-2.3,0.7h0c-4.3,1.2-9,2.1-15,2.4c0.4,0-0.4,0.1-0.4,0.1
			c-0.2,0-0.5,0-0.7,0.1c-2.4,0.1-4.9,0.2-7.5,0.2c-2.8,0-5.6-0.1-8.8-0.2l-0.1,0.1c10.9,12.2,27.9,19.5,49.2,19.5
			c45.1,0,83.3-20,100.2-64.8c12,1.2,23.6-1.8,28.8-12.1C699.7,449,688.9,450.5,682.8,453.6"/>
		<path fill="#37B1D9" d="M682.8,453.6c1.4-10.6-6.6-18.9-11.5-22.9c-5.7,6.6-6.6,23.7,2.3,31c-5,4.4-15.4,8.4-26.1,8.4H524.8
			c-0.5,17.1,5.8,30.1,17.1,38h0c8.9-0.2,16.1-1.2,21.6-3.2c0.8-0.3,1.7,0.2,2,1c0.2,0.8-0.2,1.6-0.9,1.9c-0.7,0.3-1.5,0.5-2.3,0.7
			h0c-4.3,1.2-9.4,2.2-15.4,2.5c0,0-0.1-0.1-0.1-0.1c15.3,7.9,37.6,7.8,63.1-2c28.6-11,55.2-31.9,73.8-55.8
			C683.3,453.3,683,453.5,682.8,453.6"/>
		<path fill="#1B81A5" d="M517.3,483.7c0.8,6,2.6,11.6,5.2,16.7l1.5,2.7c0.9,1.6,2,3.1,3.1,4.6c5.4,0.3,10.3,0.5,14.8,0.4
			c8.9-0.2,16.1-1.2,21.6-3.2c0.8-0.3,1.7,0.2,2,1c0.2,0.8-0.2,1.6-0.9,1.9c-0.7,0.3-1.5,0.5-2.3,0.7h0c-4.3,1.2-9.3,2.1-15.3,2.5
			c-0.2,0-0.6,0-0.8,0c-2.4,0.1-4.9,0.2-7.5,0.2c-2.8,0-5.8-0.1-8.9-0.2c10.9,12.2,28,19.6,49.3,19.6c38.6,0,72.2-14.6,91.6-47
			H517.3"/>
		<path fill="#1D91B4" d="M526,483.7c2.3,10.5,7.8,18.8,15.9,24.4c8.9-0.2,16.1-1.2,21.6-3.2c0.8-0.3,1.7,0.2,2,1
			c0.2,0.8-0.2,1.6-0.9,1.9c-0.7,0.3-1.5,0.5-2.3,0.7h0c-4.3,1.2-9.4,2.1-15.4,2.5c15.3,7.9,37.5,7.8,63-2
			c15.4-5.9,30.3-14.7,43.6-25.4H526"/>
		<path fill="#23A3C2" d="M534.8,449.3h17.6v17.6h-17.6V449.3z M536.2,450.8h1.4v14.7h-1.4V450.8z M538.8,450.8h1.4v14.7h-1.4
			L538.8,450.8L538.8,450.8z M541.5,450.8h1.4v14.7h-1.4V450.8z M544.2,450.8h1.4v14.7h-1.4V450.8z M546.9,450.8h1.4v14.7h-1.4
			V450.8L546.9,450.8z M549.5,450.8h1.4v14.7h-1.4V450.8z M555.1,429h17.6v17.6h-17.6L555.1,429L555.1,429z M556.6,430.4h1.4v14.7
			h-1.4V430.4z M559.2,430.4h1.4v14.7h-1.4L559.2,430.4L559.2,430.4z M561.9,430.4h1.4v14.7h-1.4V430.4z M564.5,430.4h1.4v14.7h-1.4
			V430.4z M567.2,430.4h1.4v14.7h-1.4V430.4z M569.9,430.4h1.4v14.7h-1.4V430.4z"/>
		<path fill="#34BBDE" d="M555.1,449.3h17.6v17.6h-17.6L555.1,449.3L555.1,449.3z M556.6,450.8h1.4v14.7h-1.4V450.8z M559.2,450.8
			h1.4v14.7h-1.4L559.2,450.8L559.2,450.8z M561.9,450.8h1.4v14.7h-1.4V450.8z M564.5,450.8h1.4v14.7h-1.4V450.8z M567.2,450.8h1.4
			v14.7h-1.4V450.8z M569.9,450.8h1.4v14.7h-1.4V450.8z"/>
		<path fill="#23A3C2" d="M575.5,449.3h17.6v17.6h-17.6V449.3z M576.9,450.8h1.4v14.7h-1.4V450.8z M579.5,450.8h1.4v14.7h-1.4V450.8
			z M582.2,450.8h1.4v14.7h-1.4V450.8z M584.9,450.8h1.4v14.7h-1.4V450.8z M587.6,450.8h1.4v14.7h-1.4V450.8z M590.2,450.8h1.4v14.7
			h-1.4V450.8z"/>
		<path fill="#34BBDE" d="M575.5,429h17.6v17.6h-17.6V429z M576.9,430.4h1.4v14.7h-1.4V430.4z M579.5,430.4h1.4v14.7h-1.4V430.4z
			 M582.2,430.4h1.4v14.7h-1.4V430.4z M584.9,430.4h1.4v14.7h-1.4V430.4z M587.6,430.4h1.4v14.7h-1.4V430.4z M590.2,430.4h1.4v14.7
			h-1.4V430.4z M595.8,449.3h17.6v17.6h-17.6V449.3z M597.3,450.8h1.4v14.7h-1.4V450.8z M599.9,450.8h1.4v14.7h-1.4V450.8z
			 M602.6,450.8h1.4v14.7h-1.4V450.8z M605.2,450.8h1.4v14.7h-1.4V450.8z M607.9,450.8h1.4v14.7h-1.4V450.8z M610.6,450.8h1.4v14.7
			h-1.4V450.8z"/>
		<path fill="#23A3C2" d="M595.8,429h17.6v17.6h-17.6V429z M597.3,430.4h1.4v14.7h-1.4V430.4z M599.9,430.4h1.4v14.7h-1.4V430.4z
			 M602.6,430.4h1.4v14.7h-1.4V430.4z M605.2,430.4h1.4v14.7h-1.4V430.4z M607.9,430.4h1.4v14.7h-1.4V430.4z M610.6,430.4h1.4v14.7
			h-1.4V430.4z"/>
		<path fill="#34BBDE" d="M595.8,408.6h17.6v17.6h-17.6V408.6z M597.3,410.1h1.4v14.7h-1.4V410.1L597.3,410.1z M599.9,410.1h1.4
			v14.7h-1.4V410.1L599.9,410.1z M602.6,410.1h1.4v14.7h-1.4V410.1L602.6,410.1z M605.2,410.1h1.4v14.7h-1.4V410.1L605.2,410.1z
			 M607.9,410.1h1.4v14.7h-1.4V410.1L607.9,410.1z M610.6,410.1h1.4v14.7h-1.4V410.1L610.6,410.1z"/>
		<path fill="#23A3C2" d="M616.2,449.3h17.6v17.6h-17.6V449.3z M617.6,450.8h1.4v14.7h-1.4L617.6,450.8L617.6,450.8z M620.2,450.8
			h1.4v14.7h-1.4L620.2,450.8L620.2,450.8z M622.9,450.8h1.4v14.7h-1.4V450.8z M625.6,450.8h1.4v14.7h-1.4V450.8z M628.3,450.8h1.4
			v14.7h-1.4V450.8z M630.9,450.8h1.4v14.7h-1.4V450.8z"/>
		<path fill="#D3ECEC" d="M571.6,495.5c2.7,0,4.9,2.1,4.9,4.8c0,2.7-2.1,4.9-4.8,4.9c0,0-0.1,0-0.1,0c-2.7,0-4.8-2.2-4.8-4.9
			C566.9,497.7,569,495.6,571.6,495.5"/>
		<path fill="#364548" d="M571.6,496.9c0.4,0,0.9,0.1,1.3,0.2c-0.7,0.4-0.9,1.3-0.5,1.9c0.3,0.4,0.7,0.7,1.2,0.7
			c0.5,0,1-0.3,1.2-0.7c0.7,1.8-0.1,3.8-1.9,4.6c-1.8,0.7-3.8-0.1-4.6-1.9c-0.7-1.8,0.1-3.8,1.9-4.6
			C570.7,497,571.2,496.9,571.6,496.9 M485.6,485.4h226.3c-4.9-1.2-15.6-2.9-13.8-9.4c-9,10.4-30.6,7.3-36,2.2
			c-6.1,8.8-41.4,5.5-43.9-1.4c-7.6,8.9-31.2,8.9-38.8,0c-2.5,6.9-37.8,10.2-43.9,1.4c-5.5,5.1-27.1,8.2-36-2.2
			C501.2,482.5,490.5,484.2,485.6,485.4"/>
		<path fill="#BDD9D7" d="M584.6,530.6c-12-5.7-18.7-13.5-22.3-22c-4.5,1.3-9.9,2.1-16.1,2.4c-2.4,0.1-4.8,0.2-7.4,0.2
			c-3,0-6.2-0.1-9.5-0.3c11,11,24.6,19.5,49.8,19.7C580.9,530.7,582.7,530.7,584.6,530.6"/>
		<path fill="#D3ECEC" d="M566.7,516.4c-1.7-2.3-3.3-5.1-4.5-7.8c-4.5,1.3-9.9,2.1-16.1,2.4C550.4,513.4,556.6,515.6,566.7,516.4"/>
	</g>
</g>
<g>
	<path fill="#FFFFFF" d="M576.5,174.5c0-12.5-7.8-23.3-19.3-27.6c0.5-2.6,0.7-5.3,0.7-8c0-23.2-18.8-42-42-42
		c-13.5,0-26.1,6.4-34,17.5c-3.9-3-8.6-4.6-13.6-4.6c-12.3,0-22.3,10-22.3,22.3c0,2.7,0.5,5.3,1.3,7.8c-11.7,4-19.5,15.2-19.5,27.6
		c0,12.5,7.8,23.4,19.4,27.7c-0.5,2.5-0.7,5.2-0.7,8c0,23.1,18.8,41.9,41.9,41.9c13.6,0,26.1-6.6,34-17.5c3.9,3,8.7,4.7,13.7,4.7
		c12.3,0,22.3-10,22.3-22.3c0-2.7-0.5-5.3-1.3-7.8C568.5,198,576.5,186.9,576.5,174.5L576.5,174.5z"/>
	<path fill="#F4BD19" d="M485.9,160.5l33.1,15.2l33.5-29.4c0.5-2.4,0.7-4.9,0.7-7.4c0-20.6-16.8-37.4-37.4-37.4
		c-12.4,0-23.9,6.1-30.8,16.3l-5.6,28.9L485.9,160.5L485.9,160.5z"/>
	<path fill="#3CBEB1" d="M451.6,195.6c-0.5,2.4-0.7,5-0.7,7.5c0,20.6,16.9,37.5,37.5,37.5c12.5,0,24-6.2,31.1-16.4l5.5-28.9
		l-7.4-14.1l-33.3-15.2L451.6,195.6L451.6,195.6z"/>
	<path fill="#E9478C" d="M451.3,138.2l22.7,5.3l5.1-25.9c-3.2-2.4-6.9-3.6-10.9-3.6c-9.8,0-18,8-18,18
		C450.2,134,450.6,136.2,451.3,138.2L451.3,138.2z"/>
	<path fill="#2C458F" d="M449.4,143.6c-10.2,3.3-17.2,13.1-17.2,23.8c0,10.4,6.4,19.8,16.1,23.4l31.9-28.9l-5.8-12.5L449.4,143.6
		L449.4,143.6z"/>
	<path fill="#95C63D" d="M525.3,224.1c3.2,2.4,6.9,3.8,10.8,3.8c9.8,0,18-8,18-18c0-2.2-0.4-4.3-1.1-6.2l-22.7-5.3L525.3,224.1
		L525.3,224.1z"/>
	<path fill="#176655" d="M529.9,192.4l25,5.8c10.2-3.4,17.2-13.1,17.2-23.8c0-10.4-6.4-19.7-16.1-23.4l-32.8,28.7L529.9,192.4
		L529.9,192.4z"/>
</g>
<g>
	<path fill="#6762A6" d="M224.7,411.8v-26.5c0-1.9-1.4-2.7-3-2.7c-3.2,0-7.3,0.8-11,2.4v26.8h-7.5v-49.3h7.5v16.2
		c3.6-1.3,7.8-2.4,12-2.4c6.8,0,9.3,4.2,9.3,9.9v25.5L224.7,411.8L224.7,411.8z M246,395.7c0.2,8.9,2,10.6,7.5,10.6
		c4.3,0,9.2-1.4,12.9-2.9l1.2,5.6c-4,1.8-8.8,3.6-14.6,3.6c-12.5,0-14.4-6.8-14.4-17.7c0-6,0.4-11.4,1.9-16.4
		c3.7-1.4,8.7-2.2,15-2.2c10.2,0,13.3,5.7,13.3,15.6v3.8L246,395.7L246,395.7z M255.5,382.6c-2.2,0-5.8,0.1-8.7,0.6
		c-0.3,1.5-0.7,3.6-0.8,7.3h15.6C261.5,385.4,260.6,382.6,255.5,382.6L255.5,382.6z M282.8,385v26.8h-7.5v-30.1
		c6.3-3.4,13-4.5,17.3-4.8v6.2C289.6,383.3,285.8,383.7,282.8,385L282.8,385z M312.4,412.7c-11.1,0-16.2-5.5-16.2-18
		c0-13.3,6.7-18.3,16.2-18.3c11.1,0,16.2,5.5,16.2,18C328.6,407.6,321.9,412.7,312.4,412.7L312.4,412.7z M312.4,382.6
		c-5.7,0-8.9,3.3-8.9,12.1c0,9.6,2.7,11.7,8.9,11.7c5.7,0,8.9-3.2,8.9-12C321.3,384.8,318.6,382.6,312.4,382.6L312.4,382.6z
		 M364.6,411.8h-8.8c-2.1-5.5-4.9-11.1-9.3-15.9h-3.9v15.9h-7.5v-49.3h7.5v28.3h3.5c3.8-3.9,6.7-8.8,8.8-13.6h8.4
		c-2.9,5.8-6.5,10.9-10.6,15.1C357.5,398.5,361.4,405.1,364.6,411.8L364.6,411.8z M378.7,412.7c-6.8,0-9.3-4.2-9.3-9.9v-25.5h7.4
		v26.5c0,1.9,1.4,2.7,3,2.7c3.2,0,7.7-0.8,11.3-2.4v-26.7h7.5v30C389.7,412.1,382.9,412.7,378.7,412.7z M375.4,350h-149
		c-12.7,0-23.1-10.3-23.1-23.1V131.1c0-12.7,10.3-23.1,23.1-23.1h149c12.7,0,23.1,10.3,23.1,23.1v195.8
		C398.4,339.7,388.1,350,375.4,350L375.4,350z"/>
	<path fill="#FFFFFF" d="M325.6,316.7v-96.1c0,0,6.3-23-77,9.4c-0.2,0.4-0.2-88.9-0.2-88.9l27.2-0.2v57.2c0,0,76.2-30,76.2,22.7
		v95.8H325.6L325.6,316.7z M341.1,175.6h-28.8c10.4-12.7,19.8-34.4,19.8-34.4h29.8C361.8,141.2,356.7,155.3,341.1,175.6L341.1,175.6
		z M248.9,316.5v-54.7l27.4,27.4L248.9,316.5L248.9,316.5z"/>
</g>
<g>
	<path fill="#E76F00" d="M159.4,314.4h-1.2v-0.7h3.1v0.7h-1.2v3.3h-0.8V314.4z M165.7,314.5L165.7,314.5l-1.2,3.1h-0.5l-1.1-3.1h0
		v3.1H162v-3.9h1.1l1.1,2.8l1.1-2.8h1.1v3.9h-0.8L165.7,314.5z"/>
	<path fill="#5382A1" d="M55,234.5c0,0-8.1,4.7,5.8,6.3c16.8,1.9,25.4,1.6,44-1.9c0,0,4.9,3.1,11.7,5.7
		C74.9,262.4,22.4,243.6,55,234.5 M49.9,211.2c0,0-9.1,6.7,4.8,8.2c18,1.9,32.2,2,56.7-2.7c0,0,3.4,3.4,8.7,5.3
		C69.9,236.7,14,223.2,49.9,211.2"/>
	<path fill="#E76F00" d="M92.7,171.8c10.2,11.8-2.7,22.4-2.7,22.4s26-13.4,14.1-30.2c-11.2-15.7-19.7-23.5,26.6-50.3
		C130.7,113.7,58,131.8,92.7,171.8"/>
	<path fill="#5382A1" d="M147.7,251.7c0,0,6,4.9-6.6,8.8c-24,7.3-99.8,9.5-120.9,0.3c-7.6-3.3,6.6-7.9,11.1-8.8
		c4.7-1,7.3-0.8,7.3-0.8c-8.4-5.9-54.4,11.7-23.4,16.7C100,281.5,169.7,261.6,147.7,251.7 M58.9,187.1c0,0-38.6,9.2-13.7,12.5
		c10.5,1.4,31.5,1.1,51-0.5c16-1.3,32-4.2,32-4.2s-5.6,2.4-9.7,5.2c-39.2,10.3-114.9,5.5-93.1-5C43.9,186.1,58.9,187.1,58.9,187.1
		 M128.1,225.8c39.8-20.7,21.4-40.6,8.6-37.9c-3.2,0.7-4.6,1.2-4.6,1.2s1.2-1.8,3.4-2.6c25.4-8.9,45,26.4-8.2,40.3
		C127.3,226.9,127.9,226.3,128.1,225.8"/>
	<path fill="#E76F00" d="M104.1,70.3c0,0,22.1,22.1-20.9,56c-34.5,27.2-7.9,42.7,0,60.5c-20.1-18.2-34.9-34.1-25-49
		C72.7,115.9,113,105.4,104.1,70.3"/>
	<path fill="#5382A1" d="M62.8,281.9c38.2,2.4,96.9-1.4,98.3-19.4c0,0-2.7,6.9-31.6,12.3c-32.6,6.1-72.9,5.4-96.7,1.5
		C32.8,276.3,37.7,280.3,62.8,281.9"/>
	<path fill="#E76F00" d="M56.6,351c-3.6,3.1-7.4,4.9-10.8,4.9c-4.9,0-7.5-2.9-7.5-7.6c0-5.1,2.8-8.8,14.2-8.8h4.2L56.6,351
		 M66.5,362.3v-34.8c0-8.9-5.1-14.7-17.3-14.7c-7.1,0-13.4,1.8-18.4,4l1.5,6.2c4-1.5,9.2-2.8,14.2-2.8c7,0,10.1,2.8,10.1,8.7v4.4
		h-3.5c-17.1,0-24.8,6.6-24.8,16.6c0,8.6,5.1,13.5,14.6,13.5c6.1,0,10.7-2.5,15-6.3l0.8,5.3L66.5,362.3L66.5,362.3z M99.7,362.3
		H87.3l-14.9-48.6h10.8l9.3,29.9l2.1,9c4.7-13,8-26.2,9.7-38.8h10.5C111.9,329.7,106.8,347.2,99.7,362.3 M147.3,351
		c-3.6,3.1-7.4,4.9-10.8,4.9c-4.9,0-7.5-2.9-7.5-7.6c0-5.1,2.8-8.8,14.2-8.8h4.2V351 M157.3,362.3v-34.8c0-8.9-5.1-14.7-17.3-14.7
		c-7.1,0-13.4,1.8-18.5,4l1.5,6.2c4-1.5,9.2-2.8,14.3-2.8c7,0,10.1,2.8,10.1,8.7v4.4h-3.5c-17.1,0-24.8,6.6-24.8,16.6
		c0,8.6,5.1,13.5,14.6,13.5c6.2,0,10.7-2.5,15-6.3l0.8,5.3L157.3,362.3L157.3,362.3z M17.3,370.5c-2.8,4.1-7.4,7.4-12.4,9.3L0,374
		c3.8-2,7.1-5.1,8.6-8.1c1.3-2.6,1.9-6,1.9-14.1v-55.5H21v54.7C21,361.9,20.2,366.3,17.3,370.5"/>
</g>
<g>
	<path fill="#D33833" d="M746.5,229.8c0,37.8-30,68.6-67,68.6c-37,0-67-30.7-67-68.6c0-37.8,30-68.6,67-68.6
		C716.4,161.2,746.5,191.9,746.5,229.8"/>
	<path fill="#EF3D3A" d="M615.1,246.8c0,0-4.9-71.5,61-73.5l-4.6-7.7l-35.7,12l-10.2,11.7l-8.9,17.1l-5.1,19.9l1.5,13.3"/>
	<path fill="#231F20" d="M633.5,183c-11.7,12.1-19,28.7-19,47s7.3,35,19,47c11.8,12.1,28,19.5,45.9,19.5c18,0,34.1-7.4,45.9-19.5
		c11.7-12.1,19-28.7,19-47c0-18.4-7.3-35-19-47c-11.8-12-28-19.5-45.9-19.5C661.5,163.6,645.3,171,633.5,183L633.5,183z M630.5,280
		c-12.5-12.8-20.2-30.4-20.2-49.9s7.7-37.1,20.2-50c12.5-12.8,29.8-20.7,48.9-20.7c19.1,0,36.4,7.9,48.9,20.7
		c12.5,12.8,20.2,30.4,20.2,50c0,19.5-7.7,37.1-20.2,49.9c-12.5,12.8-29.8,20.7-48.9,20.7C660.3,300.7,643,292.8,630.5,280
		L630.5,280z"/>
	<path fill="#F0D6B7" d="M707.6,230.2l-10.2,1.5l-13.8,1.6l-8.9,0.2l-8.7-0.3l-6.7-2.1l-5.9-6.4l-4.6-13l-1-2.8l-6.1-2.1l-3.6-5.9
		l-2.5-8.4l2.8-7.4l6.7-2.3l5.4,2.5l2.5,5.6l3.1-0.5l1-1.3l-1-5.9l-0.3-7.4l1.5-10.2l-0.1-5.8l4.6-7.5l8.2-5.9l14.3-6.1l15.8,2.3
		l13.8,9.9l6.4,10.2l4.1,7.4l1,18.4l-3.1,15.8l-5.6,14.1l-5.3,7.5"/>
	<path fill="#335061" d="M699,274.3l-36.5,1.5v6.1l3.1,21.5l-1.5,1.8l-25.5-8.7l-1.8-3.1l-2.5-28.9l-6-17.3l-1.3-4.1l20.4-14.1
		l6.4-2.5l5.6,6.9l4.9,4.3l5.6,1.8l2.5,0.8l3.1,13.3l2.3,2.8l5.9-2.1l-4.1,7.9l22.2,10.5L699,274.3"/>
	<path fill="#6D6B6D" d="M638.4,185.2l6.7-2.3l5.4,2.5l2.5,5.6l3.1-0.5l0.8-3.1l-1.5-5.9l1.5-14.1l-1.3-7.7l4.6-5.4l9.9-7.9
		l-2.8-3.8l-14.1,6.9l-5.9,4.6l-3.3,7.1l-5.1,6.9l-1.5,8.2L638.4,185.2"/>
	<path fill="#DCD9D8" d="M648.9,161.2c0,0,3.8-9.5,19.1-14.1c15.3-4.6,0.8-3.3,0.8-3.3l-16.6,6.4l-6.4,6.4l-2.8,5.1L648.9,161.2
		 M641.2,183.4c0,0-5.4-17.9,15.1-20.4l-0.8-3.1l-14.1,3.3l-4.1,13.3l1,8.7L641.2,183.4"/>
	<path fill="#F7E4CD" d="M649.4,207.2l3.4-3.2c0,0,1.5,0.2,1.8,1.9c0.3,1.8,1,17.9,12,26.5c1,0.8-8.2-1.3-8.2-1.3l-8.2-12.8
		 M696.4,202.3c0,0,0.6-7.7,2.7-7.1c2.1,0.6,2.1,2.7,2.1,2.7S696.1,201.1,696.4,202.3 M717.6,174c0,0-4.2,0.9-4.6,4.6
		c-0.4,3.7,4.6,0.8,5.4,0.5 M686.7,174.3c0,0-5.6,0.8-5.6,4.3c0,3.6,6.4,3.3,8.2,1.8 M652,190.9c0,0-9.7-5.9-10.7-0.3
		c-1,5.6-3.3,9.7,1.5,15.6l-3.3-1l-3.1-7.9l-1-7.7l5.9-6.1l6.7,0.5l3.8,3.1L652,190.9 M656.6,174.7c0,0,4.3-22.5,26.3-26.8
		c18.1-3.6,27.6,0.8,31.1,4.9c0,0-16.1-19.1-31.4-13.3c-15.3,5.9-26.5,16.6-26.3,23.5C656.8,174.7,656.6,174.7,656.6,174.7
		 M715.8,155.3c0,0-7.4-0.3-7.7,6.4c0,0,0,1,0.5,2.1c0,0,5.9-6.7,9.5-3.1"/>
	<path fill="#F7E4CD" d="M683.4,164.5c0,0-1.3-10.2-9.9-4.3c-5.6,3.8-5.1,9.2-4.1,10.2c1,1,0.8,3.1,1.5,1.7c0.8-1.4,0.5-6,3.4-7.3
		C677,163.5,681.6,162.1,683.4,164.5"/>
	<path fill="#49728B" d="M659.4,233.5l-24,10.7c0,0,9.9,39.6,4.9,51.9l-3.6-1.3l-0.3-15.1l-6.7-28.5l-2.8-7.9l25-16.9L659.4,233.5
		 M661.8,255.4l3.4,4.2v15.3h-4.1c0,0-0.5-10.7-0.5-12c0-1.3,0.5-5.9,0.5-5.9 M661.9,277.2l-11.5,0.5l3.3,2.3l8.2,1.3"/>
	<path fill="#335061" d="M701.3,274.6l9.5-0.3l2.3,23.5l-9.7,1.3L701.3,274.6"/>
	<path fill="#335061" d="M703.8,274.6l14.3-0.8c0,0,5.9-14.8,5.9-15.6c0-0.8,5.1-21.5,5.1-21.5l-11.5-12l-2.3-2.1l-6.1,6.1v23.7
		L703.8,274.6"/>
	<path fill="#49728B" d="M710.2,272.8l-8.9,1.8l1.3,7.1c3.3,1.5,8.9-2.5,8.9-2.5 M710.4,228.1l17.9,13.3l0.5-6.1l-13.5-12.5
		L710.4,228.1"/>
	<path fill="#FFFFFF" d="M670.8,324.9l-5.3-21.5l-2.6-15.8l-0.4-11.7l24-1.3h14.9l-1.4,26.8l2.3,20.7l-0.3,3.8l-19.4,1.5
		L670.8,324.9"/>
	<path fill="#DCD9D8" d="M698,274.3c0,0-1.3,26.5,2.5,45.5c0,0-7.7,4.9-18.9,6.1l21.5-0.8l2.5-1.5l-3.1-41.8l-0.8-9"/>
	<path fill="#FFFFFF" d="M713.4,295.8l9.9-2.8l18.9-1l2.8-8.7l-5.1-15.1l-5.9-0.8l-8.2,2.5l-7.8,3.8L714,273l-3.2,1.3"/>
	<path fill="#DCD9D8" d="M713.3,290.7c0,0,6.7-3.1,7.7-2.8l-2.8-14.1l3.3-1.3c0,0,2.3,13.3,2.3,14.8c0,0,14.3,0.8,15.6,0.8
		c0,0,3.1-5.9,2.3-12l2.8,8.2l0.3,4.6l-4.1,6.1l-4.6,1l-7.7-0.3l-2.5-3.3l-8.9,1.3l-2.8,1"/>
	<path fill="#FFFFFF" d="M703.2,272.6l-5.6-14.3l-5.9-8.4c0,0,1.3-3.6,3.1-3.6h5.9l5.6,2.1l-0.5,9.5L703.2,272.6"/>
	<path fill="#DCD9D8" d="M704.3,267.7c0,0-7.1-13.8-7.1-15.8c0,0,1.3-3.1,3.1-2.3c1.8,0.8,5.6,2.8,5.6,2.8v-4.9l-8.7-1.8l-5.9,0.8
		l9.9,23.6l2.1,0.3"/>
	<path fill="#FFFFFF" d="M673.1,234l-7.1-0.8l-6.7-2.1v2.3l3.2,3.6l10.2,4.6"/>
	<path fill="#DCD9D8" d="M661.7,234.8c0,0,7.9,3.3,10.5,2.5l0.3,3.1l-7.1-1.5l-4.3-3.1L661.7,234.8"/>
	<path fill="#D33833" d="M713.4,247.1c-4.3-0.1-8.3-0.6-11.7-1.6c0.2-1.4-0.2-2.8,0.2-3.8c1-0.7,2.5-0.7,4-0.9
		c-1.2-0.6-3-0.9-4.4-0.5c-0.1-1-0.5-1.6-0.8-2.3c2.4-0.9,8.2-6.5,11.4-4.7c1.6,0.9,2.2,6,2.3,8.5C714.6,244,714.2,246,713.4,247.1"
		/>
	<path stroke="#D33833" stroke-width="2" d="M713.4,247.1c-4.3-0.1-8.3-0.6-11.7-1.6c0.2-1.4-0.2-2.8,0.2-3.8c1-0.7,2.5-0.7,4-0.9
		c-1.2-0.6-3-0.9-4.4-0.5c-0.1-1-0.5-1.6-0.8-2.3c2.4-0.9,8.2-6.5,11.4-4.7c1.6,0.9,2.2,6,2.3,8.5C714.6,244,714.2,246,713.4,247.1
		L713.4,247.1z"/>
	<path fill="#D33833" d="M692.7,240.1c0,0.3,0,0.6-0.1,1c-1.4,0.9-3.5,0.9-5,1.6c2.2,0.1,3.9,0.6,5.4,1.4c-0.1,0.8-0.1,1.7-0.1,2.5
		c-2.5,1.7-4.8,4.2-7.7,5.8c-1.4,0.8-6.2,2.7-7.7,2.3c-0.8-0.2-0.9-1.2-1.2-2.2c-0.7-2.1-2.3-5.4-2.5-8.5c-0.2-3.9-0.6-10.6,3.7-9.8
		c3.5,0.6,7.5,2.2,10.1,3.7C689.3,238.8,690.2,239.8,692.7,240.1"/>
	<path stroke="#D33833" stroke-width="2" d="M692.7,240.1c0,0.3,0,0.6-0.1,1c-1.4,0.9-3.5,0.9-5,1.6c2.2,0.1,3.9,0.6,5.4,1.4
		c-0.1,0.8-0.1,1.7-0.1,2.5c-2.5,1.7-4.8,4.2-7.7,5.8c-1.4,0.8-6.2,2.7-7.7,2.3c-0.8-0.2-0.9-1.2-1.2-2.2c-0.7-2.1-2.3-5.4-2.5-8.5
		c-0.2-3.9-0.6-10.6,3.7-9.8c3.5,0.6,7.5,2.2,10.1,3.7C689.3,238.8,690.2,239.8,692.7,240.1L692.7,240.1z"/>
	<path fill="#D33833" d="M695.1,244.8c-0.4-2.2-0.8-2.8-0.6-4.7C700.3,236.3,701.3,246.7,695.1,244.8"/>
	<path stroke="#D33833" stroke-width="2" d="M695.1,244.8c-0.4-2.2-0.8-2.8-0.6-4.7C700.3,236.3,701.3,246.7,695.1,244.8
		L695.1,244.8z"/>
	<path fill="#EF3D3A" d="M703.5,246.5c0,0-1.8-2.5-0.5-3.3c1.3-0.8,2.5,0,3.3-1.3c0.8-1.3,0-2.1,0.3-3.6c0.3-1.5,1.5-1.8,2.8-2.1
		c1.3-0.3,4.9-0.8,5.4,0.5l-1.5-4.6l-3.1-1l-9.7,5.6l-0.5,2.8v5.6 M676.7,254.9c-0.3-4-0.6-7.9-1-11.9c-0.5-5.9,1.4-4.9,6.6-4.9
		c0.8,0,4.9,0.9,5.1,1.5c1.4,2.9-2.3,2.2,1.6,4.4c3.3,1.8,9.2-1.1,7.8-5.1c-0.8-0.9-3.9-0.3-5-0.9l-6-3.1c-2.5-1.3-8.4-3.2-11.1-1.4
		c-6.9,4.6,0.4,16.3,2.9,21.2"/>
	<path fill="#231F20" d="M683.4,164.5c-7-1.6-10.4,2.9-12.5,7.6c-1.9-0.4-1.1-3-0.6-4.3c1.2-3.4,6.3-8,10.4-7.4
		C682.3,160.6,684.7,162.3,683.4,164.5 M717.3,172.4h0.3c1.6,3.2,2.9,6.7,4.9,9.6c-1.4,3.1-10.1,5.8-9.9,0.3
		c1.9-0.8,5.1-0.2,6.8-1.2C718.5,178.4,717.1,176.1,717.3,172.4 M686.9,172.5c1.5,2.8,2,5.6,4.1,7.7c1,0.9,2.8,2.1,1.9,4.6
		c-0.2,0.6-1.8,1.9-2.7,2.2c-3.3,1-11,0.2-8.4-3.9c2.8,0.1,6.4,1.8,8.5-0.2C688.7,180.4,685.9,175.4,686.9,172.5 M716.1,200.3
		c-5,3.2-10.5,6.7-18.8,5.9c-1.7-1.5-2.4-4.9-0.7-7.1c0.9,1.5,0.3,4.3,2.8,4.8c4.6,0.8,10.1-2.9,13.4-4.1c2.1-3.5-0.2-4.8-2.1-7
		c-3.8-4.6-8.9-10.3-8.8-17.2c1.6-1.1,1.7,1.7,1.9,2.2c2,4.6,7,10.7,10.7,14.7c0.9,1,2.4,1.9,2.5,2.6
		C717.6,196.7,715.9,199,716.1,200.3 M650.2,196.9c-1.6-0.9-1.9-4.8-3.8-4.9c-2.6-0.2-2.2,5.1-2.2,8.2c-1.8-1.6-2.1-6.7-0.8-9.3
		c-1.5-0.8-2.2,0.8-3,1.4C641.6,184.4,651.9,188.6,650.2,196.9 M719.2,203.6c-2.3,4.4-5.6,9.3-12.4,9.5c-0.2-1.4-0.3-3.6,0-4.5
		C712,208,715.3,205.3,719.2,203.6 M686.5,206.4c4.3,2.3,12.3,2.5,18.3,2.4c0.3,1.3,0.3,2.9,0.3,4.5
		C697.5,213.6,688.5,211.7,686.5,206.4 M685.7,210.6c3,7.6,13.4,6.7,22.1,6.5c-0.4,1-1.2,2.2-2.3,2.5c-2.8,1.1-10.5,2-14.4-0.1
		c-2.4-1.3-4.1-4.3-5.4-6C685.1,212.8,681.9,210.7,685.7,210.6"/>
	<path fill="#81B0C4" d="M715.7,252.3c-3.5,6.1-6.9,12.3-11.1,17.6c1.7-5.1,2.5-13.8,2.8-20.4C711,247.8,714.2,249.9,715.7,252.3"/>
	<path fill="#231F20" d="M734.7,274.1c-3.9,0.8-6.7,4.6-10.6,4.4C726.2,275.5,729.9,274.2,734.7,274.1 M736.4,280.2
		c-3.2,0.3-7,0.9-10.3,0.6C727.7,278.4,733.6,279.3,736.4,280.2 M737.5,285.6c-3.6,0.1-8.1,0-11.6-0.3
		C728,283.1,735.2,284.5,737.5,285.6"/>
	<path fill="#DCD9D8" d="M708.9,300.2c0.5,4.5,2.3,9.1,2.1,14.1c-2,0.6-3.1,1.2-5.8,1.2c-0.2-4.2-0.8-10.7-0.6-14.8
		C705.9,300.9,707.8,299.9,708.9,300.2"/>
	<path fill="#F0D6B7" d="M703,233.1c-1.8,1.2-3.4,2.6-5.1,3.9c-3.9,0.2-6-0.3-8.8-2.5c0.1-0.2,0.3-0.1,0.3-0.3
		C693.6,236.1,698.9,233.5,703,233.1"/>
	<path fill="#81B0C4" d="M681.3,261.4c1.1-4.9,5.6-7.5,9.7-10.2c4.2,5.3,6.7,12.1,9.5,18.7C693.8,267.9,687.1,264.7,681.3,261.4"/>
	<path fill="#231F20" d="M704.6,300.8c-0.2,4.1,0.4,10.5,0.6,14.8c2.7,0,3.8-0.6,5.8-1.2c0.2-5-1.6-9.6-2.1-14.1
		C707.8,299.9,705.9,300.9,704.6,300.8z M662.8,277.9c1.8,16.3,4.3,29.9,9,44.3c10.4,3.2,23,3.5,32.2,0.6c-1.7-8.1-1-18-1.9-26.7
		c-0.8-6.5-0.4-13.1-1.4-19.7C689.5,274.1,673.7,275.9,662.8,277.9L662.8,277.9z M703.4,276.5c-0.1,7,0.3,13.9,0.9,20.9
		c2.7-0.4,4.5-0.6,7-1.2c-0.8-6.7-0.7-14.3-2.4-20.3C706.9,275.9,705.3,275.9,703.4,276.5L703.4,276.5z M716.9,275.4
		c-1.3-0.3-2.8,0-3.9,0c0.6,5.7,1.9,11.9,2.4,18c1.9,0.1,2.9-0.9,4.5-1.1C720,286.9,719.5,279.7,716.9,275.4L716.9,275.4z
		 M737.5,294.2c4-1,6.5-5.8,5.4-10.9c-0.8-3.4-2.1-9.7-3.5-11.9c-1-1.6-3.9-3.7-6.2-2.2c-3.7,2.4-10.3,3.1-13,5.9
		c1.4,4.5,1.8,10.7,2.3,16.4c4.7,0.3,10.3-1.3,14.2,0.4c-2.7,0.9-6.2,0.9-8.5,2.2C730.2,295,734.6,294.9,737.5,294.2L737.5,294.2z
		 M700.4,269.9c-2.8-6.6-5.4-13.4-9.5-18.7c-4.1,2.7-8.5,5.3-9.7,10.2C687.1,264.7,693.8,267.9,700.4,269.9L700.4,269.9z
		 M707.4,249.5c-0.3,6.6-1,15.2-2.8,20.4c4.2-5.4,7.6-11.5,11.1-17.6C714.2,249.9,711,247.8,707.4,249.5L707.4,249.5z M699.5,246.8
		c-1.6-0.2-2.9,1.8-5,1c-0.5,0.5-0.9,1.1-1.4,1.6c4.5,5.5,6.7,13.3,10.2,19.7c1.9-6.2,1.7-13,2.1-19.7
		C702.8,249.5,701.4,246.9,699.5,246.8L699.5,246.8z M694.5,240.1c-0.2,1.9,0.3,2.5,0.6,4.7C701.3,246.7,700.3,236.3,694.5,240.1z
		 M687.6,237.8c-2.6-1.5-6.7-3-10.1-3.7c-4.3-0.8-3.8,5.8-3.7,9.8c0.2,3.1,1.8,6.4,2.5,8.5c0.3,1,0.4,2,1.2,2.2
		c1.5,0.3,6.3-1.6,7.7-2.3c2.9-1.6,5.2-4.1,7.7-5.8c0.1-0.8,0.1-1.7,0.1-2.5c-1.5-0.8-3.2-1.2-5.4-1.4c1.5-0.8,3.7-0.8,5-1.6
		c0-0.3,0-0.6,0.1-1C690.2,239.8,689.3,238.8,687.6,237.8L687.6,237.8z M662.2,233.2c-2.2,2.3,6.2,5.3,8.9,5.5
		c0-1.4,0.8-2.8,0.6-3.8C668.5,234.4,664.4,234.8,662.2,233.2L662.2,233.2z M689.5,234.3c0,0.2-0.3,0.2-0.3,0.3
		c2.9,2.2,5,2.7,8.8,2.5c1.7-1.2,3.3-2.8,5.1-3.9C698.9,233.5,693.6,236.1,689.5,234.3L689.5,234.3z M714.4,241.8
		c-0.1-2.5-0.8-7.6-2.3-8.5c-3.2-1.9-9,3.8-11.4,4.7c0.3,0.8,0.7,1.4,0.8,2.3c1.5-0.4,3.2-0.1,4.4,0.5c-1.5,0.2-3,0.2-4,0.9
		c-0.3,1,0.1,2.4-0.2,3.8c3.4,1,7.4,1.5,11.7,1.6C714.2,246,714.6,244,714.4,241.8L714.4,241.8z M658.5,235.4
		c-0.7-0.5-5.4-6.6-6.1-6.3c-8.5,3.4-16.4,9.1-23.5,14.7c6.8,14.5,9.5,32.3,10,49.5c7.7,3.6,14.5,8.9,25.1,9.4
		c-1.2-8.6-2.3-16.3-3-24.4c-2.6-1.1-6.4,0.1-8.9-0.3c0-3,3.8-1.3,4.1-3.3c0.2-1.5-2.1-1.6-1.4-4c1.9,0.7,3,2.3,5,2.9
		c1.9-4.1,0-11.4,0.3-14.9c0.1-0.6,0.3-3.6,1.8-3.1c1.3,0.4-0.1,7.8,0.1,11.1c0.1,3-0.4,5.9,0.9,7.8c10.2-1.4,20.5-2.3,31.5-2.6
		c-2.4-1-5.3-2-8.4-3.8c-1.7-1-7.1-3-7.6-4.6c-0.8-2.6,2.1-3.9,2.5-6.2c-5.1,2.8-6.1-2.7-7.4-6.5c-1.1-3.5-1.7-6.2-2-8.2
		C667,240.2,662.3,238.1,658.5,235.4L658.5,235.4z M710,229.8c7.1-3.4,8.4,12.8,5.6,18.1c0.4,1.6,1.9,2.2,2.5,3.6
		c-3.9,7.1-8.3,13.7-12.4,20.7c3-1.9,7.3-0.3,10.8-1.7c1.3-0.5,2.2-3.5,3.2-5.8c2.7-6.5,5.5-14.7,6.8-20.9c0.3-1.4,1.1-4.5,0.9-5.7
		c-0.3-2.3-3.4-3.9-4.9-5.3c-2.9-2.6-4.6-4.8-7.7-7.2C713.5,227.1,710.9,228.3,710,229.8L710,229.8z M642.3,167
		c-3.4,3.7-2.6,10.7-2.3,15.6c6.1-3.8,14.2,0.3,14.1,6.8c2.9-0.1,1.1-3.6,0.5-5.9c-1.7-7.5,2.9-15.6,0.2-22.5
		C649.7,161.4,645.4,163.6,642.3,167L642.3,167z M666.4,145.4c-7.6,2.2-17.4,7.7-20.5,14.6c2.4-0.4,4.1-1.6,6.5-1.7
		c0.9-0.1,2.1,0.4,3.1,0.1c2.1-0.5,3.8-5.2,5.4-6.9c1.5-1.7,3.4-2.4,4.6-3.9c0.8-0.4,2-0.4,2.1-1.6
		C667.2,145.6,666.9,145.3,666.4,145.4L666.4,145.4z M706.2,147.5c-7.9-4.5-21.4-7.8-29.8-3.6c-6.8,3.4-16,9-19.1,16.1
		c2.9,6.9-0.9,13.1-1.1,20.1c-0.1,3.7,1.7,6.9,1.9,11c-1,1.7-4.1,1.8-6.2,1.7c-0.7-3.6-1.9-7.6-5.6-8c-5.2-0.6-9,3.7-9.2,8.2
		c-0.3,5.3,4.1,14.1,10.2,13.5c2.4-0.2,3-2.6,5.6-2.6c1.4,2.8-2.2,3.7-2.5,5.7c-0.1,0.5,0.3,2.5,0.5,3.5c1.1,4.6,3.6,10.6,6.1,14.1
		c3.1,4.5,9.2,5.1,15.8,5.6c1.2-2.5,5.5-2.3,8.3-1.7c-3.4-1.4-6.5-4.6-9.1-7.5c-3-3.3-6-6.8-6.2-11.1c5.7,7.8,10.3,14.7,20.6,18.2
		c7.8,2.6,16.9-1.2,22.9-5.4c2.5-1.7,3.9-4.5,5.7-7c6.6-9.5,9.7-23,9-36.2c-0.3-5.4-0.3-10.8-2.1-14.4c-1.9-3.8-8.3-7.2-12.1-3.8
		c-0.7-3.7,3.1-6,7.6-4.6C714.1,155,710.8,150.1,706.2,147.5L706.2,147.5z M721,269.7c6.2-3.1,17.8-8.3,21.6,0
		c1.5,3.1,3.1,8.2,3.8,11.4c1,4.4-1.1,13.8-5.7,15.3c-4.1,1.3-8.8,1.2-13.6,0.3c-0.6-0.5-1.2-1.3-1.7-2.2c-3.5-0.1-6.8,0.2-9.5,1.6
		c0.3,2.6-1.5,3-3.1,3.5c-1.2,4.8,2.4,11.1,1.6,15.4c-0.6,3.1-4.4,3.6-7.2,4.2c-0.1,1.7,0.1,3.2,0.3,4.7c-0.6,2.4-3.5,3.7-6.3,4.1
		c-9,1.1-22.7,1.6-31.4-1.6c-2.4-5.9-4.3-13.1-6.3-19.9c-8.4,0.9-15.3-3.6-21.7-6.7c-2.2-1-5.3-1.6-6.2-3.4c-0.8-1.7-0.5-5-0.7-8.1
		c-0.5-7.9-1-15.6-3-23.7c-0.9-3.7-2.6-6.9-3.7-10.4c-1.1-3.2-2.9-7.3-3.4-10.5c-0.7-4.8,3.8-5.1,6.7-7.2c4.5-3.2,8-5,12.9-7.9
		c1.5-0.9,5.8-3,6.3-4.1c1-2-1.7-4.8-2.4-6.4c-1.1-2.5-1.7-4.6-1.9-7c-4.1-0.6-7.2-3.1-9-5.8c-3.1-4.5-5.2-12.9-2.5-19.2
		c0.2-0.5,1.2-1.5,1.4-2.3c0.3-1.5-0.6-3.5-0.6-5.1c-0.3-8.3,1.4-15.4,7-17.9c2.3-9,10.4-12,18-16.5c2.9-1.7,6-2.8,9.2-3.9
		c11.6-4.3,29.5-3.5,39.2,3.8c4.1,3.1,10.7,9.6,13,14.4c6.2,12.5,5.7,33.4,1.4,48.7c-0.6,2.1-1.4,5-2.6,7.5
		c-0.8,1.7-3.4,5.1-3.1,6.7c0.3,1.6,5.8,5.7,7,6.9c2.1,2.1,6.2,4.8,6.5,7.4c0.4,2.8-1.2,6.5-2,9.2C726.6,253.6,724,261.8,721,269.7
		L721,269.7z"/>
	<path fill="#F7E4CD" d="M679.6,208.3c0.3-0.4,2.2-1.1,4.8,0.1c0,0-3.1,0.5-2.8,5.6l-1.3-0.3C680.3,213.8,679,209.2,679.6,208.3"/>
	<path fill="#1D1919" d="M702,252.2c0,0.8-0.6,1.4-1.4,1.4c-0.8,0-1.4-0.6-1.4-1.4c0-0.8,0.6-1.4,1.4-1.4
		C701.4,250.8,702,251.5,702,252.2 M703.4,258.8c0,0.8-0.6,1.4-1.4,1.4c-0.8,0-1.4-0.6-1.4-1.4c0-0.8,0.6-1.4,1.4-1.4
		C702.8,257.4,703.4,258,703.4,258.8"/>
	<g>
		<path fill="#231F20" d="M629.8,341.5c-0.4,0.1-0.8,0.1-1.1,0.2c-0.3,0.1-0.6,0.1-1.1,0.2c-0.5,0.1-0.8,0.3-0.9,0.6
			c-0.1,0.3-0.2,0.6-0.2,1.1v13.2c0,1.2-0.3,2.3-0.8,3.4c-0.5,1-1.1,1.8-2,2.5c-0.9,0.6-1.8,1.2-2.9,1.5c-1.1,0.3-2.2,0.5-3.4,0.5
			c-2.1,0-3.8-0.5-5.1-1.5c-1.3-1-1.9-2.4-1.9-4.2c0-1,0.3-1.9,0.9-2.6c0.6-0.7,1.4-1,2.4-1c1,0,1.7,0.3,2.3,0.9
			c0.6,0.6,0.9,1.3,0.9,2.1c0,0.7-0.3,1.4-0.8,2c-0.5,0.6-1.1,1.2-1.7,1.7v0.2c0.1,0.2,0.3,0.4,0.6,0.6c0.3,0.2,0.7,0.2,1,0.2
			c1.4,0,2.4-0.5,3.2-1.5c0.8-1,1.1-2.4,1.1-4.4v-13.5c0-0.4-0.1-0.8-0.2-1c-0.1-0.3-0.4-0.5-0.9-0.7c-0.3-0.2-0.8-0.3-1.2-0.4
			c-0.5-0.1-0.9-0.2-1.2-0.2v-1.3h12.8v1.4L629.8,341.5L629.8,341.5z M649.8,360.1c-0.4,0.6-0.9,1.2-1.4,1.8c-0.5,0.6-1.2,1-1.9,1.5
			c-0.8,0.4-1.5,0.8-2.3,1c-0.8,0.2-1.7,0.3-2.6,0.3c-1.7,0-3.1-0.2-4.3-0.7c-1.2-0.5-2.2-1.1-3-1.9c-0.8-0.8-1.4-1.7-1.8-2.8
			c-0.4-1.1-0.6-2.3-0.6-3.5c0-1.1,0.2-2.3,0.6-3.3c0.4-1,1-2,1.8-2.8c0.8-0.8,1.7-1.5,2.9-1.9c1.2-0.5,2.6-0.8,3.9-0.8
			c1.6,0,2.9,0.2,3.9,0.6c1,0.4,1.8,0.9,2.5,1.6c0.6,0.6,1.1,1.4,1.4,2.3c0.3,0.9,0.4,1.8,0.4,2.8v1.1h-11.4c0,2.3,0.4,4.1,1.4,5.2
			c0.9,1.2,2.3,1.8,4.2,1.8c1.1,0,2-0.3,2.9-0.9c0.9-0.6,1.6-1.3,2.2-2.2L649.8,360.1L649.8,360.1z M643.3,353.7
			c0-0.6-0.1-1.4-0.1-2.1c-0.1-0.7-0.2-1.3-0.4-1.7c-0.2-0.5-0.4-0.9-0.8-1.2c-0.3-0.3-0.8-0.4-1.2-0.4c-0.9,0-1.6,0.4-2.1,1.3
			c-0.5,0.9-0.8,2.3-0.9,4.2L643.3,353.7L643.3,353.7z M673.6,364.1h-10.2v-1.2c0.2,0,0.5-0.1,0.8-0.1c0.3-0.1,0.5-0.1,0.7-0.2
			c0.2-0.1,0.4-0.3,0.5-0.5c0.1-0.2,0.2-0.6,0.2-1v-7.9c0-1.1-0.2-2-0.6-2.6c-0.4-0.6-1-0.9-1.9-0.9c-0.4,0-0.9,0.1-1.2,0.2
			c-0.4,0.1-0.8,0.3-1.1,0.6c-0.3,0.2-0.6,0.4-0.8,0.7c-0.2,0.2-0.4,0.4-0.5,0.6v9c0,0.4,0.1,0.7,0.2,1c0.1,0.3,0.3,0.5,0.5,0.6
			c0.2,0.1,0.4,0.2,0.6,0.3l0.8,0.2v1.2h-10.3v-1.2c0.3,0,0.5-0.1,0.9-0.1c0.3-0.1,0.5-0.1,0.8-0.2c0.4-0.1,0.6-0.3,0.8-0.6
			c0.1-0.3,0.2-0.6,0.2-1v-9.8c0-0.3-0.1-0.7-0.3-1c-0.2-0.3-0.4-0.6-0.7-0.8c-0.2-0.1-0.4-0.3-0.8-0.3c-0.3-0.1-0.7-0.2-1-0.2v-1.2
			l8.1-0.4l0.3,0.3v2.4h0.1c0.4-0.3,0.8-0.7,1.1-1c0.4-0.3,0.8-0.7,1.2-1c0.4-0.3,1-0.5,1.6-0.7c0.6-0.2,1.4-0.3,2.2-0.3
			c1.8,0,3.2,0.5,4.1,1.6c0.9,1,1.4,2.4,1.4,4.2v8.3c0,0.4,0.1,0.8,0.2,1c0.1,0.3,0.4,0.4,0.7,0.6c0.2,0.1,0.4,0.2,0.6,0.2
			c0.3,0.1,0.5,0.1,0.9,0.2v1.3H673.6L673.6,364.1z M696.9,364.1h-7.9c-0.8-1.5-1.7-3-2.7-4.4c-0.8-1.2-1.6-2.3-2.3-3.3l-1,0.9v3.7
			c0,0.4,0.1,0.8,0.2,1c0.1,0.3,0.3,0.4,0.7,0.6c0.2,0.1,0.4,0.2,0.7,0.2c0.3,0.1,0.5,0.1,0.8,0.1v1.2h-10.5v-1.2
			c0.3,0,0.5-0.1,0.9-0.1c0.3-0.1,0.5-0.1,0.8-0.2c0.4-0.1,0.6-0.3,0.8-0.6c0.1-0.3,0.2-0.6,0.2-1v-18.8c0-0.4-0.1-0.8-0.3-1.1
			c-0.2-0.4-0.4-0.7-0.7-0.9c-0.2-0.1-0.5-0.3-1-0.3c-0.4-0.1-0.8-0.2-1.2-0.2v-1.2l8.4-0.4l0.3,0.3v17.4c0.8-0.8,1.8-1.6,2.8-2.6
			c1-1,1.9-1.8,2.5-2.4c0.4-0.4,0.6-0.6,0.6-0.9c0.1-0.2,0.1-0.3,0.1-0.4c0-0.2-0.2-0.4-0.5-0.5c-0.4-0.1-0.9-0.3-1.6-0.4v-1.2h8.5
			v1.2c-1.1,0.3-2,0.6-2.6,0.9c-0.6,0.3-1.2,0.6-1.9,1.1c-0.5,0.3-0.9,0.6-1.4,1c-0.4,0.3-0.9,0.8-1.5,1.2c1.1,1.6,2.1,3.1,3,4.4
			c0.9,1.4,1.9,2.8,2.9,4.3c0.3,0.5,0.8,0.9,1.3,1.1c0.5,0.2,1,0.3,1.6,0.3v1.3L696.9,364.1L696.9,364.1z M707.7,364.1H697v-1.2
			c0.3,0,0.6-0.1,0.9-0.1c0.3-0.1,0.5-0.1,0.7-0.2c0.4-0.1,0.6-0.3,0.8-0.6c0.2-0.3,0.2-0.6,0.2-1v-9.8c0-0.4-0.1-0.8-0.3-1
			c-0.1-0.3-0.4-0.5-0.6-0.7c-0.2-0.1-0.5-0.3-0.9-0.4c-0.4-0.1-0.8-0.2-1.1-0.2v-1.2l8.3-0.4l0.3,0.3v13.4c0,0.4,0.1,0.7,0.3,1
			c0.2,0.3,0.4,0.5,0.7,0.6c0.2,0.1,0.5,0.2,0.8,0.3c0.3,0.1,0.5,0.1,0.9,0.2L707.7,364.1L707.7,364.1L707.7,364.1z M705.3,341.1
			c0,0.9-0.3,1.6-1,2.2c-0.6,0.6-1.5,0.9-2.3,0.9c-0.9,0-1.7-0.3-2.4-0.9c-0.6-0.6-1-1.4-1-2.2c0-0.9,0.3-1.6,1-2.2
			c0.6-0.6,1.5-0.9,2.4-0.9c0.9,0,1.7,0.3,2.3,0.9C704.9,339.5,705.3,340.2,705.3,341.1L705.3,341.1z M731.5,364.1h-10.2v-1.2
			c0.2,0,0.5-0.1,0.8-0.1c0.3-0.1,0.5-0.1,0.7-0.2c0.2-0.1,0.4-0.3,0.5-0.5c0.1-0.2,0.2-0.6,0.2-1v-7.9c0-1.1-0.2-2-0.6-2.6
			c-0.4-0.6-1-0.9-1.9-0.9c-0.4,0-0.9,0.1-1.2,0.2c-0.4,0.2-0.8,0.3-1.1,0.6c-0.3,0.2-0.6,0.4-0.8,0.7c-0.2,0.2-0.4,0.4-0.5,0.6v9
			c0,0.4,0.1,0.7,0.2,1c0.1,0.3,0.3,0.5,0.5,0.6c0.2,0.1,0.4,0.2,0.6,0.3l0.8,0.2v1.2h-10.3v-1.2c0.3,0,0.5-0.1,0.9-0.1
			c0.3-0.1,0.5-0.1,0.8-0.2c0.4-0.1,0.6-0.3,0.8-0.6c0.1-0.3,0.2-0.6,0.2-1v-9.8c0-0.3-0.1-0.7-0.3-1c-0.2-0.3-0.4-0.6-0.7-0.8
			c-0.2-0.1-0.4-0.3-0.8-0.3c-0.3-0.1-0.7-0.2-1-0.2v-1.2l8.1-0.4l0.3,0.3v2.4h0.1c0.4-0.3,0.8-0.7,1.1-1c0.4-0.3,0.8-0.7,1.2-1
			c0.4-0.3,1-0.5,1.6-0.7c0.6-0.2,1.4-0.3,2.2-0.3c1.8,0,3.2,0.5,4.1,1.6c0.9,1,1.4,2.4,1.4,4.2v8.3c0,0.4,0.1,0.8,0.2,1
			c0.1,0.3,0.4,0.4,0.7,0.6c0.2,0.1,0.4,0.2,0.6,0.2c0.3,0.1,0.5,0.1,0.9,0.2v1.3H731.5L731.5,364.1z M740.9,364.7
			c-1.1,0-2.2-0.2-3.2-0.5c-1-0.3-1.8-0.6-2.4-1l-0.5,1.1h-1.3l-0.2-6.3h1.2c0.2,0.5,0.4,1.1,0.9,1.7c0.4,0.6,0.9,1.2,1.4,1.7
			c0.6,0.5,1.2,0.9,1.8,1.3c0.7,0.3,1.4,0.5,2.2,0.5c1,0,1.8-0.2,2.3-0.6c0.5-0.4,0.8-1,0.8-1.8c0-0.4-0.1-0.8-0.3-1.1
			c-0.2-0.3-0.5-0.5-0.9-0.8c-0.4-0.2-0.9-0.4-1.5-0.6c-0.5-0.2-1.2-0.3-1.9-0.6c-0.8-0.2-1.4-0.4-1.9-0.7c-0.5-0.2-1.1-0.6-1.7-1.1
			c-0.5-0.4-0.9-1-1.2-1.6c-0.3-0.6-0.4-1.4-0.4-2.2c0-1.6,0.6-2.9,2-3.8c1.4-1,3.1-1.5,5.2-1.5c1,0,1.9,0.1,2.8,0.3
			c0.9,0.2,1.6,0.4,2.2,0.7l0.4-1h1.3l0.3,5.7h-1.2c-0.4-1.2-1.1-2.2-2-3c-1-0.9-2-1.3-3.1-1.3c-0.9,0-1.6,0.2-2.1,0.5
			c-0.5,0.4-0.8,0.9-0.8,1.5c0,0.9,0.4,1.5,1.1,1.8c0.7,0.4,1.7,0.8,3,1.1c2,0.5,3.5,1.2,4.4,2.1c0.9,0.9,1.4,2.1,1.4,3.4
			c0,1.8-0.7,3.3-2.2,4.3C745.1,364.1,743.2,364.7,740.9,364.7L740.9,364.7z"/>
	</g>
</g>
<g>
	<g>
		<path fill="#F35045" d="M146.9,572.8c1.2,1.8,2,1.6,2.9,1.2c1-0.4,50.2-17,51.7-17.6c1.5-0.5,1-1,0.5-1.8
			c-0.5-0.8-16.9-23-17.7-24.3c-0.8-1.3-1.2-1-2.5-0.6l-52.2,13.6C129.6,543.3,145.6,571,146.9,572.8z M205.7,550.1V524
			c-5.9,1.6-13.3,3.5-16.2,4.3C193.9,534.2,200.8,543.5,205.7,550.1z M189.4,496.2c-0.8,0.2-18.6,3.4-19.7,3.5
			c-1.1,0.1-0.7,0.8-0.3,1.4l15.7,21.5c0,0,19.2-4.8,20.3-5c0.1,0,0.2,0,0.3-0.1v-2.8c-3.5-4.4-13-16.4-13.8-17.6
			C190.9,495.8,190.2,496,189.4,496.2L189.4,496.2z"/>
		<path fill="#F35045" d="M77.4,462.4c3.9-0.2,4.2,0.7,5.9,3.2l42.6,71.2l53.5-12.8c-3-4.2-16.4-23.3-17.7-25.1c-1.5-2,0-3,2.4-3.4
			c2.4-0.4,22.9-3.8,24.6-4.1c1.8-0.3,3.1-0.9,6,2.6c1.5,1.8,6.4,7.9,11,13.7v-33.3c0-8.1-2.9-15.1-8.7-20.9
			c-5.8-5.8-12.7-8.7-20.9-8.7H77.7c-8.1,0-15.1,2.9-20.9,8.7c-3.3,3.3-5.7,7-7.1,11.1C59.4,463.8,74.7,462.5,77.4,462.4L77.4,462.4
			z"/>
		<path fill="#F35045" d="M151.7,582.3c-4.5,1.4-6.5,2-9.5-2.1c-2.2-3.1-14.1-24.5-19.9-35.1c-11,2.9-31.3,8.2-37.1,9.6
			c-5.7,1.4-8.1-2-9.1-4.1c-0.7-1.5-17.3-37.4-28-60.5v82.7c0,8.1,2.9,15.1,8.7,20.9c5.8,5.8,12.7,8.7,20.9,8.7h98.5
			c8.1,0,15.1-2.9,20.9-8.7c5.8-5.8,8.7-12.7,8.7-20.9v-9.7C193.6,567.5,154.7,581.4,151.7,582.3z"/>
		<path fill="#F35045" d="M85.3,546.5c1.6-0.4,31.6-7.5,32.2-7.7c0.6-0.1,1.1-0.5,0.4-1.7c-0.7-1.2-40-69-40-69
			c-0.4-0.6-0.3-0.8-1.2-0.8c-0.9,0-23.1,2-28.2,2.5c-0.2,1.1-0.2,2.2-0.3,3.3c5.2,10.7,35.2,72.5,35.4,73
			C83.7,546.7,83.7,546.8,85.3,546.5L85.3,546.5z"/>
	</g>
</g>
<g>
	<g>
		<path fill="#8E714E" d="M489.7,34.7c-0.3,0.1-0.5,0.6-0.5,1c-0.1,2.1-0.1,7.8-0.1,11.6c0,0.1,0.2,0.3,0.3,0.3
			c0.8,0.1,2.7,0.1,4.4,0.1c2.3,0,3.6-0.3,4.4-0.6c1.9-1,2.8-3,2.8-5.3c0-5.2-3.6-7.1-9-7.1C491.6,34.5,490.5,34.5,489.7,34.7
			L489.7,34.7z M503.4,58.4c0-5.3-3.9-8.2-10.9-8.2c-0.3,0-2.6-0.1-3.1,0.1c-0.2,0.1-0.4,0.2-0.4,0.3c0,3.8-0.1,9.8,0.1,12.1
			c0.1,1,0.9,2.4,1.8,2.9c1,0.5,3.1,0.6,4.6,0.6C499.8,66.3,503.4,63.9,503.4,58.4L503.4,58.4z M478.9,31.8c0.5,0,2.1,0.2,6.2,0.2
			c3.9,0,7-0.1,10.7-0.1c4.6,0,11,1.6,11,8.6c0,3.4-2.4,6.1-5.5,7.4c-0.2,0.1-0.2,0.2,0,0.2c4.5,1.1,8.4,3.9,8.4,9.1
			c0,5.1-3.2,8.3-7.8,10.4c-2.8,1.2-6.3,1.6-9.9,1.6c-2.7,0-10-0.3-14-0.2c-0.4-0.2,0.4-2.1,0.7-2.4c1-0.1,1.7-0.1,2.7-0.4
			c1.4-0.4,1.6-0.8,1.8-3c0.1-1.9,0.1-8.4,0.1-13.1c0-6.4,0.1-10.8,0-12.9c-0.1-1.6-0.6-2.2-1.8-2.5c-0.9-0.2-2.4-0.4-3.6-0.5
			C477.7,33.8,478.6,32,478.9,31.8L478.9,31.8z M448.2,64.8c1.3,1,3.8,1.4,6,1.4c2.9,0,5.7-0.5,8.5-3c2.8-2.5,4.8-6.5,4.8-12.7
			c0-6-2.3-10.9-7-13.8c-2.7-1.6-6.1-2.3-10-2.3c-1.2,0-2.3,0.1-3,0.4c-0.2,0.1-0.5,0.6-0.5,0.8c-0.1,1.1-0.1,9.2-0.1,14
			c0,4.9,0,11.8,0.1,12.6C447.1,63.1,447.4,64.3,448.2,64.8L448.2,64.8z M436.2,31.8c1,0,4.9,0.2,6.7,0.2c3.3,0,5.7-0.2,12.1-0.2
			c5.3,0,9.8,1.4,13,4.1c3.9,3.3,5.9,8,5.9,13.6c0,8-3.7,12.6-7.3,15.3c-3.7,2.7-8.4,4.3-15.2,4.3c-3.6,0-9.8-0.1-15-0.2h-0.1
			c-0.3-0.5,0.4-2.3,0.8-2.4c1.4-0.2,1.8-0.2,2.4-0.5c1.1-0.4,1.3-1,1.5-3c0.2-3.7,0.1-8.1,0.1-13.1c0-3.6,0.1-10.5-0.1-12.8
			c-0.2-1.9-1-2.3-2.5-2.7c-0.8-0.2-1.9-0.4-3.3-0.5C435,33.7,435.9,32.1,436.2,31.8L436.2,31.8z"/>
		<path fill="#442D22" d="M371.9,66.9c-1.3-0.2-2.3-0.4-3.5-0.9c-0.2-0.1-0.4-0.6-0.4-0.9c-0.1-1.9-0.1-7.2-0.1-10.7
			c0-2.9-0.5-5.4-1.7-7.1c-1.4-2-3.5-3.2-6.2-3.2c-2.3,0-5.5,1.6-8.1,3.8c-0.1,0.1-0.5,0.4-0.4-0.2c0-0.6,0.1-1.8,0.2-2.6
			c0.1-0.7-0.4-1.1-0.4-1.1c-1.7,0.8-6.5,2-8.2,2.1c-1.3,0.3-1.6,1.5-0.3,1.9h0.1c1.4,0.4,2.4,0.9,3.1,1.4c0.5,0.4,0.5,1,0.5,1.5
			c0.1,4,0.1,10.1-0.1,13.4c-0.1,1.3-0.4,1.8-1.4,2l0.1-0.1c-0.7,0.2-1.3,0.3-2.2,0.4c-0.3,0.3-0.3,2,0,2.4c0.6,0,3.7-0.2,6.2-0.2
			c3.5,0,5.3,0.2,6.2,0.2c0.4-0.4,0.5-2,0.3-2.4c-1-0.1-1.8-0.2-2.4-0.4c-1-0.2-1.2-0.7-1.3-1.8c-0.1-2.8-0.1-8.8-0.1-12.8
			c0-1.1,0.3-1.6,0.6-2c1.2-1.1,3.2-1.8,4.9-1.8c1.7,0,2.8,0.5,3.7,1.2c1.2,1,1.5,2.3,1.7,3.3c0.3,2.3,0.2,6.8,0.2,10.7
			c0,2.1-0.2,2.7-1,2.9c-0.4,0.2-1.3,0.4-2.4,0.5c-0.4,0.4-0.3,2,0,2.4c1.5,0,3.3-0.2,6-0.2c3.3,0,5.4,0.2,6.3,0.2
			C372,68.9,372.1,67.3,371.9,66.9L371.9,66.9z M386.6,46.6c-2.8,0-4.6,2.2-4.6,5.6c0,3.5,1.5,7.4,5.9,7.4c0.7,0,2.1-0.3,2.8-1.1
			c1-1,1.7-2.9,1.7-4.9C392.4,49.2,390.2,46.6,386.6,46.6L386.6,46.6z M386.2,70.1c-1.1,0-1.8,0.3-2.3,0.6c-2.2,1.4-3.2,2.8-3.2,4.5
			c0,1.5,0.6,2.8,1.9,3.8c1.5,1.3,3.7,2,6.4,2c5.4,0,7.8-2.9,7.8-5.8c0-2-1-3.3-3.1-4.1C392.2,70.4,389.5,70.1,386.2,70.1
			L386.2,70.1z M386.6,83.9c-3.2,0-5.6-0.7-7.6-2.2c-2-1.5-2.8-3.7-2.8-5.3c0-0.4,0.1-1.6,1.1-2.7c0.6-0.6,1.9-1.9,4.9-3.9
			c0.1-0.1,0.2-0.1,0.2-0.2c0-0.1-0.1-0.2-0.2-0.3c-2.5-1-3.2-2.5-3.5-3.3v-0.1c-0.1-0.3-0.2-0.6,0.3-1c0.4-0.3,0.9-0.6,1.5-1
			c0.9-0.5,1.9-1.1,2.4-1.6c0.1-0.1,0.1-0.2,0.1-0.3c0-0.1-0.1-0.2-0.2-0.3c-3.7-1.2-5.6-4-5.6-8.1c0-2.7,1.2-5.2,3.4-6.7
			c1.5-1.2,5.2-2.6,7.7-2.6h0.2c2.5,0.1,3.9,0.6,5.8,1.3c1.1,0.4,2.1,0.5,3.5,0.5c2.1,0,3-0.6,3.7-1.4c0.1,0.1,0.2,0.4,0.2,1.1
			c0.1,0.7-0.2,1.7-0.7,2.4c-0.4,0.6-1.4,1-2.3,1h-0.3c-1-0.1-1.4-0.2-1.4-0.2l-0.2,0.1c-0.1,0.1,0,0.2,0.1,0.4l0.1,0.1
			c0.1,0.5,0.3,1.9,0.3,2.3c0,4.4-1.8,6.3-3.6,7.7c-1.8,1.3-3.9,2.2-6.2,2.4c-0.1,0-0.3,0-0.7,0.1c-0.3,0-0.6,0.1-0.7,0.1h-0.1
			c-0.4,0.1-1.5,0.6-1.5,1.5c0,0.8,0.5,1.8,2.8,1.9c0.5,0.1,1,0.1,1.5,0.1c3,0.2,6.8,0.5,8.6,1.1c2.4,0.9,4,3.1,4,5.7
			c0,3.9-2.8,7.6-7.5,9.9C391.4,83.4,389.1,83.9,386.6,83.9L386.6,83.9z M416.9,46.9c-1.1,0-2.1,0.3-2.9,0.8
			c-2.1,1.3-3.1,3.8-3.1,7.5c0,7,3.5,11.8,8.5,11.8c1.5,0,2.7-0.4,3.7-1.3c1.5-1.3,2.3-3.8,2.3-7.4
			C425.4,51.5,421.9,46.9,416.9,46.9L416.9,46.9z M417.9,69.6c-9,0-12.3-6.6-12.3-12.9c0-4.4,1.8-7.7,5.3-10.1
			c2.5-1.5,5.5-2.4,8.1-2.4c6.9,0,11.7,4.9,11.7,12.1c0,4.8-1.9,8.7-5.6,11C423.4,68.5,420.4,69.6,417.9,69.6L417.9,69.6L417.9,69.6
			z M323.2,46.9c-1.1,0-2.1,0.3-2.9,0.8c-2.1,1.3-3.1,3.8-3.1,7.5c0,7,3.5,11.8,8.5,11.8c1.5,0,2.7-0.4,3.7-1.3
			c1.5-1.3,2.3-3.8,2.3-7.4C331.7,51.5,328.3,46.9,323.2,46.9L323.2,46.9z M324.1,69.6c-9,0-12.3-6.6-12.3-12.9
			c0-4.4,1.8-7.7,5.3-10.1c2.5-1.5,5.5-2.4,8.1-2.4c6.9,0,11.7,4.9,11.7,12.1c0,4.8-1.9,8.7-5.6,11
			C329.7,68.5,326.7,69.6,324.1,69.6L324.1,69.6z M263.4,69.1c-0.1-0.2-0.2-0.6-0.2-1.2c0-0.4,0.1-0.7,0.2-0.8
			c1.1-0.2,1.7-0.3,2.3-0.5c1.1-0.3,1.5-0.8,1.5-2.2c0.2-3.2,0.2-9.2,0.1-13.4v-0.1c0-0.5,0-1.1-0.6-1.5c-0.9-0.5-1.9-1-3.2-1.4
			c-0.5-0.2-0.8-0.4-0.7-0.7c0-0.3,0.3-0.7,1-0.8c1.8-0.2,6.3-1.3,8.1-2.1c0.1,0.1,0.3,0.4,0.3,0.9l-0.1,0.6c-0.1,0.6-0.1,1.3-0.1,2
			c0,0.2,0.2,0.4,0.4,0.4c0.1,0,0.2-0.1,0.3-0.1c3.4-2.7,6.5-3.6,8.1-3.6c2.6,0,4.6,1.2,6.2,3.8c0.1,0.2,0.2,0.2,0.4,0.2
			c0.1,0,0.3-0.1,0.3-0.2c3.1-2.4,6.3-3.8,8.3-3.8c4.9,0,7.9,3.7,7.9,9.9c0,1.8,0,4-0.1,6.1c0,1.9-0.1,3.6-0.1,4.8
			c0,0.3,0.4,1.1,1,1.3c0.7,0.4,1.8,0.5,3.1,0.7h0.1c0.1,0.4-0.1,1.8-0.3,2c-0.3,0-0.8,0-1.3-0.1c-1.3-0.1-2.7-0.1-4-0.1
			c-3.3,0-5,0.1-6.6,0.2c-0.1-0.4-0.2-1.7,0-2c1-0.2,1.4-0.3,2-0.5c1.1-0.3,1.3-0.8,1.4-2.2c0-1,0.2-9.6-0.1-11.7
			c-0.3-2.1-1.9-4.6-5.4-4.6c-1.3,0-3.4,0.5-5.4,2.1c-0.1,0.1-0.2,0.4-0.2,0.5v0.1c0.2,1.1,0.2,2.4,0.2,4.4v3.5c0,2.4-0.1,4.6,0,6.3
			c0,1.2,0.7,1.4,1.3,1.6c0.3,0.1,0.5,0.1,0.8,0.2c0.5,0.1,1,0.2,1.7,0.4c0.1,0.2,0.1,0.9-0.1,1.5c-0.1,0.3-0.2,0.5-0.2,0.5
			c-1.8-0.1-3.7-0.1-6.4-0.1c-0.8,0-2.2,0.1-3.3,0.1c-1,0-1.9,0.1-2.4,0.1c-0.1-0.1-0.2-0.5-0.2-1.1c0-0.5,0.1-0.8,0.2-1
			c0.3-0.1,0.5-0.1,0.7-0.1c0.6-0.1,1.2-0.2,1.7-0.3c0.9-0.3,1.2-0.7,1.3-1.9c0.2-2.7,0.3-10.3-0.1-12.2c-0.6-3.1-2.4-4.6-5.2-4.6
			c-1.6,0-3.7,0.8-5.4,2.1c-0.3,0.2-0.5,0.7-0.5,1.2v3.1c0,3.8,0,8.6,0.1,10.7c0.1,0.6,0.3,1.4,1.5,1.6c0.3,0.1,0.7,0.2,1.2,0.2
			l1,0.2c0.1,0.3,0.1,1.6-0.2,2c-0.5,0-1.2-0.1-1.9-0.1c-1.1-0.1-2.5-0.1-4.1-0.1c-1.9,0-3.2,0.1-4.3,0.1
			C264.6,69.1,264.1,69.1,263.4,69.1L263.4,69.1z"/>
		<path fill="#FFFFFF" d="M235.5,81.8l-2.2-0.7c0,0,0.3-11.1-3.7-11.9c-2.7-3.1,0.4-130.7,10-0.4c0,0-3.3,1.6-3.9,4.5
			C235,76,235.5,81.8,235.5,81.8L235.5,81.8z"/>
		<path fill="#A6A385" d="M235.5,81.8l-2.2-0.7c0,0,0.3-11.1-3.7-11.9c-2.7-3.1,0.4-130.7,10-0.4c0,0-3.3,1.6-3.9,4.5
			C235,76,235.5,81.8,235.5,81.8L235.5,81.8z"/>
		<path fill="#FFFFFF" d="M236.6,71.1c0,0,19.1-12.5,14.6-38.6c-4.3-19-14.5-25.2-15.6-27.6c-1.2-1.7-2.4-4.7-2.4-4.7l0.8,52.8
			C234.1,53,232.4,69.1,236.6,71.1"/>
		<path fill="#499D4A" d="M236.6,71.1c0,0,19.1-12.5,14.6-38.6c-4.3-19-14.5-25.2-15.6-27.6c-1.2-1.7-2.4-4.7-2.4-4.7l0.8,52.8
			C234.1,53,232.4,69.1,236.6,71.1"/>
		<path fill="#FFFFFF" d="M232.2,71.8c0,0-17.9-12.2-16.8-33.7c1-21.5,13.7-32.1,16.1-34c1.6-1.7,1.6-2.3,1.8-4
			c1.1,2.4,0.9,35.8,1.1,39.7C234.7,54.8,233.4,68.9,232.2,71.8z"/>
		<path fill="#58AA50" d="M232.2,71.8c0,0-17.9-12.2-16.8-33.7c1-21.5,13.7-32.1,16.1-34c1.6-1.7,1.6-2.3,1.8-4
			c1.1,2.4,0.9,35.8,1.1,39.7C234.7,54.8,233.4,68.9,232.2,71.8z"/>
	</g>
</g>
<g>
	<path fill="#00678C" d="M429.8,333.4h5.7v-22.6l8.9,19.7c1,2.4,2.5,3.3,5.3,3.3c2.8,0,4.2-0.9,5.2-3.3l8.9-19.7v22.6h5.8v-22.6
		c0-2.2-0.9-3.3-2.7-3.8c-4.4-1.3-7.3-0.2-8.6,2.8l-8.8,19.5l-8.4-19.5c-1.3-2.9-4.2-4.1-8.6-2.8c-1.8,0.6-2.7,1.6-2.7,3.8
		L429.8,333.4L429.8,333.4L429.8,333.4z M474.4,315h5.8v12.4c0,0.7,0.2,2.3,3.3,2.3c1.6,0,12.4,0,12.5,0v-14.9h5.8v20.4
		c0,5-6.2,6.1-9.1,6.2h-18.1v-3.8h18.2c3.7-0.4,3.3-2.2,3.3-2.9v-1.5h-12.2c-5.7,0-9.3-2.6-9.4-5.4
		C474.4,327.6,474.5,315.1,474.4,315L474.4,315z M597.9,300.6c-3.5-0.1-6.2,0.3-8.5,1.2c-0.7,0.3-1.7,0.3-1.8,1.1
		c0.4,0.3,0.4,0.9,0.7,1.4c0.5,0.9,1.5,2.1,2.3,2.7c0.9,0.7,1.8,1.4,2.8,2c1.7,1.1,3.6,1.7,5.3,2.7c1,0.6,1.9,1.4,2.9,2.1
		c0.5,0.4,0.8,0.9,1.4,1.1v-0.1c-0.3-0.4-0.4-1-0.7-1.4c-0.4-0.4-0.9-0.8-1.3-1.3c-1.3-1.7-2.9-3.2-4.6-4.4c-1.4-1-4.5-2.3-5.1-3.9
		l-0.1-0.1c1-0.1,2.1-0.4,3-0.7c1.5-0.4,2.9-0.3,4.4-0.7c0.7-0.2,1.4-0.4,2.1-0.6v-0.4c-0.8-0.8-1.4-1.8-2.2-2.6
		c-2.2-1.9-4.7-3.8-7.3-5.4c-1.4-0.9-3.1-1.5-4.6-2.2c-0.5-0.3-1.4-0.4-1.7-0.8c-0.8-1-1.2-2.2-1.8-3.4c-1.3-2.4-2.5-5.1-3.6-7.7
		c-0.8-1.7-1.3-3.4-2.2-5c-4.5-7.5-9.5-12-17-16.4c-1.6-0.9-3.6-1.3-5.6-1.8c-1.1,0-2.2-0.1-3.3-0.2c-0.7-0.3-1.4-1.1-2-1.5
		c-2.5-1.6-9-5-10.8-0.5c-1.2,2.9,1.8,5.7,2.8,7.1c0.7,1,1.7,2.2,2.2,3.3c0.3,0.7,0.4,1.5,0.7,2.3c0.7,1.9,1.4,4.1,2.3,5.9
		c0.5,0.9,1,1.9,1.6,2.7c0.4,0.5,1,0.7,1.1,1.5c-0.6,0.9-0.7,2.2-1,3.3c-1.6,5-1,11.1,1.3,14.8c0.7,1.1,2.4,3.5,4.6,2.6
		c2-0.8,1.5-3.3,2.1-5.5c0.1-0.5,0-0.9,0.3-1.2v0.1c0.6,1.2,1.2,2.4,1.8,3.6c1.4,2.2,3.7,4.4,5.7,5.9c1.1,0.8,1.9,2.2,3.2,2.6v-0.1
		h-0.1c-0.3-0.4-0.7-0.6-1-0.9c-0.8-0.8-1.7-1.8-2.3-2.6c-1.8-2.5-3.5-5.2-4.9-8c-0.7-1.4-1.3-2.9-1.9-4.2c-0.3-0.5-0.3-1.3-0.7-1.6
		c-0.7,1-1.6,1.8-2.1,3c-0.8,1.9-0.9,4.2-1.2,6.6c-0.2,0-0.1,0-0.2,0.1c-1.4-0.4-1.9-1.8-2.4-3c-1.3-3.1-1.5-8.1-0.4-11.7
		c0.3-0.9,1.6-3.8,1.1-4.7c-0.3-0.8-1.1-1.3-1.6-2c-0.6-0.8-1.2-1.9-1.6-2.8c-1.1-2.5-1.6-5.2-2.7-7.7c-0.5-1.1-1.5-2.3-2.2-3.4
		c-0.8-1.2-1.8-2-2.4-3.4c-0.2-0.5-0.5-1.3-0.2-1.8c0.1-0.4,0.3-0.5,0.6-0.6c0.6-0.5,2.2,0.1,2.8,0.4c1.6,0.7,3,1.3,4.4,2.2
		c0.6,0.4,1.3,1.3,2.1,1.5h0.9c1.4,0.3,3,0.1,4.3,0.5c2.3,0.7,4.4,1.8,6.3,3c5.8,3.6,10.5,8.8,13.7,15c0.5,1,0.7,1.9,1.2,3
		c0.9,2.2,2.1,4.4,3,6.5c0.9,2.1,1.8,4.2,3.1,5.9c0.7,0.9,3.3,1.4,4.5,1.9c0.9,0.4,2.2,0.7,3,1.2c1.5,0.9,3,2,4.4,3
		C595.6,298.6,597.8,299.7,597.9,300.6L597.9,300.6z"/>
	<path fill="#00678C" d="M553.1,262.3c-0.7,0-1.3,0.1-1.8,0.2v0.1h0.1c0.4,0.7,1,1.2,1.4,1.8c0.4,0.7,0.7,1.4,1,2.1l0.1-0.1
		c0.6-0.4,0.9-1.1,0.9-2.2c-0.3-0.3-0.3-0.6-0.5-0.9C554,262.9,553.4,262.7,553.1,262.3L553.1,262.3z"/>
	<path fill="#CE8B2C" d="M506.1,333.4h16.5c1.9,0,3.8-0.4,5.3-1.1c2.5-1.1,3.7-2.7,3.7-4.7v-4.2c0-1.6-1.4-3.2-4.1-4.2
		c-1.4-0.5-3.2-0.8-4.9-0.8h-6.9c-2.3,0-3.4-0.7-3.7-2.2c0-0.2,0-0.4,0-0.5V313c0-0.1,0-0.3,0-0.5c0.3-1.2,0.9-1.5,2.9-1.7h16.9
		v-3.8h-16.1c-2.3,0-3.6,0.1-4.7,0.5c-3.4,1.1-4.9,2.7-4.9,5.7v3.3c0,2.6,2.9,4.8,7.8,5.3c0.5,0,1.1,0,1.7,0h5.9c0.2,0,0.4,0,0.6,0
		c1.8,0.2,2.6,0.5,3.1,1.1c0.4,0.4,0.4,0.7,0.4,1.1v3.3c0,0.4-0.3,0.9-0.8,1.4c-0.5,0.4-1.4,0.7-2.5,0.8c-0.2,0-0.3,0-0.6,0h-15.9
		V333.4L506.1,333.4z M567.4,326.8c0,3.9,2.9,6.1,8.8,6.6c0.6,0,1.1,0.1,1.7,0.1h15v-3.8h-15.1c-3.3,0-4.6-0.8-4.6-2.9v-19.8h-5.8
		L567.4,326.8L567.4,326.8L567.4,326.8z M535.3,326.9v-13.6c0-3.5,2.5-5.6,7.3-6.2c0.5,0,1.1-0.1,1.5-0.1H555c0.6,0,1.1,0,1.6,0.1
		c4.8,0.7,7.2,2.8,7.2,6.2v13.6c0,2.8-1,4.3-3.4,5.3l5.6,5.1h-6.6l-4.6-4.1l-4.6,0.3h-6.2c-1,0-2.2-0.1-3.3-0.4
		C537.1,332,535.3,330.1,535.3,326.9L535.3,326.9z M541.5,326.6c0,0.2,0.1,0.3,0.1,0.6c0.3,1.6,1.8,2.5,4.1,2.5h5.2l-4.7-4.3h6.6
		l4.2,3.8c0.8-0.4,1.3-1.1,1.5-1.8c0-0.2,0-0.4,0-0.6v-13.1c0-0.2,0-0.3,0-0.5c-0.3-1.5-1.8-2.3-4-2.3h-8.7c-2.6,0-4.2,1.1-4.2,2.9
		V326.6L541.5,326.6z M595.5,333.4h0.8v-3.2h1.1v-0.7h-3.1v0.7h1.1L595.5,333.4L595.5,333.4z M601.9,333.4h0.8v-3.9h-1.2l-1,2.6
		l-1.1-2.6h-1.1v3.9h0.7v-2.9h0l1.1,2.9h0.6l1.1-2.9L601.9,333.4L601.9,333.4L601.9,333.4z"/>
</g>
<g>
	<g>
		<path fill="#8CC84B" d="M352.6,429.7c5.6-3.2,12.8-3.2,18.4,0c28,15.8,56,31.6,84,47.4c5.3,3,8.8,8.8,8.7,14.9v95.1
			c0,6.3-3.8,12.3-9.4,15.2c-27.9,15.7-55.8,31.5-83.7,47.2c-5.7,3.2-13.1,3-18.6-0.5c-8.4-4.8-16.7-9.7-25.1-14.5
			c-1.7-1-3.6-1.8-4.8-3.5c1.1-1.4,3-1.6,4.5-2.2c3.5-1.1,6.7-2.9,9.9-4.6c0.8-0.6,1.8-0.3,2.6,0.2c7.2,4.1,14.2,8.3,21.4,12.4
			c1.5,0.9,3.1-0.3,4.4-1c27.4-15.5,54.8-30.9,82.1-46.4c1-0.5,1.6-1.6,1.5-2.7c0-31.4,0-62.8,0-94.1c0.1-1.3-0.6-2.4-1.8-2.9
			c-27.8-15.7-55.6-31.3-83.4-47c-1-0.7-2.3-0.7-3.3,0c-27.8,15.7-55.6,31.4-83.4,47c-1.1,0.5-1.9,1.7-1.8,2.9c0,31.4,0,62.8,0,94.2
			c-0.1,1.1,0.5,2.2,1.5,2.6c7.4,4.2,14.8,8.4,22.3,12.6c4.2,2.3,9.3,3.6,13.9,1.9c4.1-1.5,6.9-5.6,6.8-9.9c0-31.2,0-62.4,0-93.6
			c-0.1-1.4,1.2-2.5,2.6-2.4c3.6,0,7.1,0,10.7,0c1.5,0,2.5,1.5,2.3,2.9c0,31.4,0,62.8,0,94.2c0,8.4-3.4,17.5-11.2,21.6
			c-9.5,4.9-21.3,3.9-30.7-0.8c-8.2-4.1-15.9-8.9-23.9-13.2c-5.6-2.9-9.4-8.9-9.4-15.2V492c-0.1-6.2,3.6-12.2,9-15.1
			C296.9,461.2,324.8,445.4,352.6,429.7z"/>
		<path fill="#8CC84B" d="M377,495.6c12.2-0.8,25.2-0.5,36.1,5.5c8.5,4.6,13.2,14.2,13.3,23.6c-0.2,1.3-1.6,2-2.8,1.9
			c-3.5,0-7.1,0-10.6,0c-1.5,0.1-2.4-1.3-2.6-2.6c-1-4.5-3.5-9-7.7-11.1c-6.5-3.3-14.1-3.1-21.2-3c-5.2,0.3-10.8,0.7-15.1,3.8
			c-3.4,2.3-4.4,7-3.2,10.7c1.1,2.7,4.2,3.6,6.8,4.4c14.7,3.8,30.2,3.5,44.6,8.5c6,2.1,11.8,6.1,13.8,12.3c2.7,8.4,1.5,18.3-4.4,25
			c-4.8,5.5-11.8,8.5-18.8,10.2c-9.3,2.1-19,2.1-28.4,1.2c-8.9-1-18.1-3.4-25-9.4c-5.9-5.1-8.7-13-8.5-20.7c0.1-1.3,1.4-2.2,2.6-2.1
			c3.6,0,7.1,0,10.7,0c1.4-0.1,2.5,1.1,2.5,2.5c0.7,4.3,2.3,8.8,6,11.3c7.2,4.7,16.3,4.3,24.6,4.5c6.9-0.3,14.5-0.4,20.1-4.9
			c2.9-2.6,3.8-6.9,3-10.6c-0.9-3.1-4.1-4.6-7-5.6c-14.5-4.6-30.2-2.9-44.5-8.1c-5.8-2.1-11.4-5.9-13.7-11.9
			c-3.1-8.5-1.7-18.9,4.9-25.4C358.9,498.9,368.2,496.5,377,495.6L377,495.6z"/>
	</g>
</g>
<g>
	<g>
		<ellipse fill="#8993BE" cx="492.5" cy="405" rx="52.2" ry="27.2"/>
		<path d="M473.9,392.4h-13.2l-5.7,29h6.8l1.4-8h6.4c6.1,0,12.9-4.4,12.9-13C482.4,395.4,479.6,392.4,473.9,392.4z M468.9,408.4H465
			v-0.1l1.4-10.9h4.6c2.5,0,4.3,1.2,4.3,3.4C474.9,406.8,472.1,407.4,468.9,408.4z"/>
		<path d="M521.8,392.4h-13.2l-5.7,29h6.8l1.4-8h6.4c6.1,0,12.9-4.4,12.9-13C530.4,395.4,527.5,392.4,521.8,392.4z M516.8,408.4H513
			v-0.1l1.3-10.9h4.7c2.5,0,4.3,1.2,4.3,3.4C522.9,406.8,520,407.4,516.8,408.4z"/>
		<path d="M496.1,413.4h7.2l2.5-14.4c0.7-3.6-1.4-6.6-7.2-6.6h-6.4l1.4-8h-6.8l-5.7,29h6.8l3.2-16h5.4c2.5,0,2.5,1,2.1,2.8
			L496.1,413.4z"/>
	</g>
</g>
</svg>
