<?xml version="1.0" encoding="utf-8"?>
<!-- Generator: Adobe Illustrator 18.0.0, SVG Export Plug-In . SVG Version: 6.00 Build 0)  -->
<!DOCTYPE svg PUBLIC "-//W3C//DTD SVG 1.1//EN" "http://www.w3.org/Graphics/SVG/1.1/DTD/svg11.dtd">
<svg version="1.1" id="Layer_1" xmlns="http://www.w3.org/2000/svg" xmlns:xlink="http://www.w3.org/1999/xlink" x="0px" y="0px"
	 viewBox="1150.3 863.9 198 148.4" enable-background="new 1150.3 863.9 198 148.4" xml:space="preserve">
<g>
	<path fill="#CF649A" d="M1320.8,949.1c-6.9,0-12.9,1.7-17.9,4.2c-1.9-3.7-3.7-6.9-4-9.3c-0.3-2.8-0.8-4.5-0.3-7.8
		c0.4-3.3,2.4-8,2.4-8.4c0-0.3-0.4-2-4.4-2.1c-4,0-7.4,0.8-7.8,1.8c-0.4,1-1.2,3.4-1.7,5.9c-0.7,3.6-8,16.5-12.1,23.3
		c-1.4-2.6-2.5-4.9-2.7-6.8c-0.3-2.8-0.8-4.5-0.3-7.8c0.4-3.3,2.4-8,2.4-8.4c0-0.3-0.4-2-4.4-2.1c-4,0-7.4,0.8-7.8,1.8
		c-0.4,1-0.8,3.5-1.7,5.9c-0.8,2.4-10.5,23.9-13,29.5c-1.3,2.9-2.4,5.1-3.2,6.7c-0.8,1.5,0,0.1-0.1,0.3c-0.7,1.3-1.1,2-1.1,2v0
		c-0.5,1-1.1,1.9-1.4,1.9c-0.2,0-0.6-2.6,0.1-6.1c1.4-7.5,4.9-19.1,4.9-19.5c0-0.2,0.7-2.2-2.2-3.3c-2.8-1-3.8,0.7-4.1,0.7
		c-0.2,0-0.4,0.6-0.4,0.6s3.1-13.1-6-13.1c-5.7,0-13.6,6.2-17.5,11.9c-2.5,1.4-7.7,4.2-13.3,7.3c-2.1,1.2-4.3,2.4-6.4,3.5l-0.4-0.5
		c-11.1-11.8-31.5-20.1-30.7-36c0.3-5.8,2.3-21,39.3-39.4c30.3-15.1,54.5-10.9,58.7-1.7c6,13.1-13,37.6-44.4,41.1
		c-12,1.4-18.3-3.3-19.9-5c-1.7-1.8-1.9-1.9-2.5-1.5c-1,0.5-0.4,2.2,0,3.1c0.9,2.4,4.8,6.8,11.4,8.9c5.8,1.9,19.8,2.9,36.8-3.6
		c19.1-7.4,33.9-27.9,29.6-45c-4.4-17.4-33.4-23.2-60.7-13.5c-16.3,5.8-33.9,14.8-46.6,26.7c-15.1,14.1-17.5,26.4-16.5,31.5
		c3.5,18.2,28.6,30.1,38.7,38.9c-0.5,0.3-1,0.5-1.4,0.8c-5,2.5-24.2,12.5-29,23.1c-5.4,12,0.9,20.6,5,21.8
		c12.9,3.6,26.1-2.9,33.3-13.5c7.1-10.6,6.3-24.4,3-30.7l-0.1-0.2l3.9-2.3c2.6-1.5,5.1-2.9,7.3-4.1c-1.2,3.4-2.1,7.3-2.6,13.1
		c-0.5,6.8,2.2,15.6,5.9,19.1c1.6,1.5,3.6,1.5,4.8,1.5c4.3,0,6.2-3.5,8.3-7.7c2.6-5.1,4.9-11.1,4.9-11.1s-2.9,16.1,5,16.1
		c2.9,0,5.8-3.8,7.1-5.7v0c0,0,0.1-0.1,0.2-0.4c0.2-0.2,0.3-0.5,0.5-0.7v-0.1c1.2-2,3.8-6.6,7.6-14.2c5-9.8,9.8-22.1,9.8-22.1
		s0.5,3,1.9,8c0.9,2.9,2.7,6.1,4.1,9.3c-1.2,1.6-1.9,2.6-1.9,2.6l0,0c-0.9,1.2-2,2.6-3.1,3.9c-3.9,4.7-8.7,10.1-9.3,11.6
		c-0.7,1.8-0.6,3.2,0.9,4.3c1,0.8,2.9,0.9,4.9,0.8c3.6-0.2,6-1.1,7.3-1.7c1.9-0.7,4.1-1.7,6.3-3.3c3.9-2.9,6.2-6.9,6-12.3
		c-0.1-3-1.1-5.9-2.3-8.7c0.3-0.5,0.7-1,1-1.5c6.1-8.9,10.8-18.8,10.8-18.8s0.5,3,1.9,8c0.7,2.5,2.2,5.3,3.5,8
		c-5.7,4.7-9.3,10.1-10.6,13.6c-2.3,6.6-0.5,9.6,2.9,10.2c1.5,0.3,3.7-0.4,5.3-1.1c2-0.7,4.4-1.8,6.7-3.4c3.9-2.9,7.6-6.8,7.4-12.2
		c-0.1-2.5-0.8-4.9-1.7-7.2c4.9-2,11.2-3.2,19.2-2.2c17.2,2,20.6,12.8,20,17.2c-0.7,4.5-4.3,7-5.5,7.7c-1.2,0.7-1.6,1-1.5,1.5
		c0.2,0.8,0.7,0.8,1.7,0.6c1.4-0.2,9-3.7,9.4-11.9C1348.8,960.6,1338.7,949,1320.8,949.1L1320.8,949.1z M1188.1,993.8
		c-5.7,6.2-13.7,8.6-17.1,6.6c-3.7-2.1-2.2-11.3,4.8-17.9c4.3-4,9.8-7.7,13.4-10c0.8-0.5,2-1.2,3.5-2.1c0.2-0.2,0.4-0.2,0.4-0.2
		c0.3-0.2,0.6-0.3,0.9-0.5C1196.5,979,1194,987.3,1188.1,993.8L1188.1,993.8z M1229.6,965.5c-2,4.8-6.1,17.2-8.7,16.5
		c-2.2-0.6-3.5-10-0.4-19.3c1.5-4.7,4.8-10.2,6.8-12.4c3.1-3.5,6.5-4.6,7.4-3.2C1235.7,949.1,1230.9,962.5,1229.6,965.5z
		 M1263.9,981.9c-0.9,0.4-1.6,0.7-2,0.5c-0.3-0.2,0.3-0.7,0.3-0.7s4.3-4.6,6-6.7c1-1.2,2.1-2.7,3.4-4.3v0.5
		C1271.7,976.7,1266.3,980.4,1263.9,981.9L1263.9,981.9z M1290.4,975.9c-0.6-0.5-0.5-1.9,1.5-6.4c0.8-1.8,2.7-4.8,5.9-7.6
		c0.4,1.2,0.6,2.3,0.6,3.3C1298.3,972.2,1293.4,974.8,1290.4,975.9z"/>
</g>
</svg>
